<?xml version="1.0" encoding="UTF-8"?>
<!-- Generator: visioncortex VTracer 0.6.3 -->
<svg version="1.1" xmlns="http://www.w3.org/2000/svg" width="1280" height="1280">
<path d="M0 0 C1.08 -0 1.08 -0 2.18 -0 C4.62 -0.01 7.06 -0 9.5 -0 C11.26 -0 13.02 -0 14.78 -0 C19.66 -0.01 24.55 -0.01 29.43 -0 C34.73 -0 40.03 -0 45.32 -0.01 C54.62 -0.01 63.92 -0.01 73.22 -0.01 C87.04 -0 100.87 -0.01 114.7 -0.01 C137.95 -0.01 161.2 -0.01 184.46 -0.01 C185.17 -0.01 185.87 -0.01 186.61 -0.01 C187.32 -0.01 188.03 -0.01 188.76 -0.01 C210.36 -0.01 231.96 -0.01 253.57 -0.01 C255.01 -0.01 256.46 -0.01 257.9 -0.01 C263.71 -0.01 269.51 -0.01 275.32 -0.01 C291.55 -0.01 307.79 -0.01 324.02 -0.01 C324.76 -0.01 325.5 -0.01 326.26 -0.01 C349.82 -0.01 373.39 -0.01 396.96 -0.01 C397.72 -0.01 398.49 -0.01 399.28 -0.01 C411.7 -0.01 424.11 -0.01 436.53 -0 C485.8 0 535.06 -0 584.32 -0.01 C596.73 -0.01 609.15 -0.01 621.56 -0.01 C622.33 -0.01 623.09 -0.01 623.88 -0.01 C647.42 -0.01 670.96 -0.01 694.5 -0.01 C695.61 -0.01 695.61 -0.01 696.74 -0.01 C712.95 -0.01 729.17 -0.01 745.38 -0.01 C751.18 -0.01 756.98 -0.01 762.79 -0.01 C764.23 -0.01 765.67 -0.01 767.12 -0.01 C788.72 -0.01 810.31 -0.01 831.91 -0.01 C832.98 -0.01 832.98 -0.01 834.06 -0.01 C834.77 -0.01 835.48 -0.01 836.21 -0.01 C860.04 -0.01 883.86 -0.01 907.69 -0.01 C921.45 -0 935.2 -0 948.95 -0.01 C958.12 -0.01 967.29 -0.01 976.46 -0 C981.69 -0 986.93 -0 992.16 -0.01 C996.92 -0.01 1001.67 -0.01 1006.42 -0 C1008.14 -0 1009.86 -0 1011.58 -0 C1013.89 -0.01 1016.21 -0 1018.52 0 C1019.81 0 1021.09 0 1022.42 0 C1025.26 0.13 1025.26 0.13 1026.26 1.13 C1028.34 1.57 1030.42 2.01 1032.49 2.45 C1037.52 3.68 1042.38 5.42 1047.26 7.13 C1047.26 7.79 1047.26 8.45 1047.26 9.13 C1047.96 9.22 1048.65 9.31 1049.37 9.4 C1058.02 11.57 1067.87 19.02 1074.26 25.13 C1074.26 25.79 1074.26 26.45 1074.26 27.13 C1075.25 27.46 1076.24 27.79 1077.26 28.13 C1077.26 28.79 1077.26 29.45 1077.26 30.13 C1077.92 30.13 1078.58 30.13 1079.26 30.13 C1081.21 32.24 1081.21 32.24 1083.38 35 C1084.11 35.91 1084.83 36.81 1085.58 37.74 C1087.26 40.13 1087.26 40.13 1087.26 42.13 C1087.92 42.13 1088.58 42.13 1089.26 42.13 C1093.96 48.48 1097.19 55.88 1100.26 63.13 C1100.76 64.28 1100.76 64.28 1101.28 65.45 C1106.81 80.49 1107.7 96.42 1107.64 112.26 C1107.64 114.14 1107.64 116.02 1107.65 117.9 C1107.66 123.04 1107.66 128.18 1107.65 133.32 C1107.64 138.93 1107.65 144.53 1107.65 150.13 C1107.67 159.95 1107.67 169.76 1107.66 179.57 C1107.65 190.09 1107.65 200.62 1107.65 211.14 C1107.65 211.81 1107.65 212.47 1107.66 213.16 C1107.66 215.87 1107.66 218.58 1107.66 221.3 C1107.68 246.53 1107.68 271.77 1107.67 297.01 C1107.67 297.75 1107.67 298.5 1107.67 299.27 C1107.67 300.02 1107.67 300.77 1107.67 301.54 C1107.66 324.35 1107.66 347.16 1107.66 369.96 C1107.66 371.49 1107.66 373.02 1107.66 374.55 C1107.66 380.69 1107.66 386.83 1107.66 392.97 C1107.67 410.14 1107.67 427.31 1107.67 444.48 C1107.67 445.26 1107.67 446.04 1107.67 446.85 C1107.67 471.75 1107.67 496.66 1107.66 521.56 C1107.66 522.37 1107.66 523.18 1107.66 524.01 C1107.66 537.12 1107.65 550.23 1107.65 563.35 C1107.64 615.36 1107.64 667.36 1107.65 719.37 C1107.65 732.48 1107.66 745.58 1107.66 758.69 C1107.66 759.9 1107.66 759.9 1107.66 761.14 C1107.67 786.01 1107.67 810.89 1107.67 835.77 C1107.67 836.94 1107.67 836.94 1107.67 838.14 C1107.67 855.29 1107.67 872.44 1107.66 889.59 C1107.66 895.72 1107.66 901.86 1107.66 908 C1107.66 909.52 1107.66 911.05 1107.66 912.58 C1107.66 935.38 1107.66 958.18 1107.67 980.98 C1107.67 982.1 1107.67 982.1 1107.67 983.24 C1107.67 983.99 1107.67 984.73 1107.67 985.5 C1107.68 1010.67 1107.67 1035.83 1107.66 1061 C1107.66 1063.7 1107.66 1066.41 1107.65 1069.11 C1107.65 1069.77 1107.65 1070.44 1107.65 1071.12 C1107.65 1082.25 1107.65 1093.38 1107.66 1104.51 C1107.67 1114.2 1107.66 1123.89 1107.65 1133.58 C1107.64 1139.1 1107.64 1144.62 1107.65 1150.14 C1107.66 1155.17 1107.66 1160.2 1107.64 1165.23 C1107.64 1167.03 1107.64 1168.83 1107.65 1170.63 C1107.74 1194.57 1102.92 1218 1089.26 1238.13 C1088.6 1238.13 1087.94 1238.13 1087.26 1238.13 C1087.05 1238.81 1086.85 1239.49 1086.63 1240.19 C1084.83 1244.04 1082.36 1247.2 1079.26 1250.13 C1078.6 1250.13 1077.94 1250.13 1077.26 1250.13 C1076.93 1251.12 1076.6 1252.11 1076.26 1253.13 C1075.6 1253.13 1074.94 1253.13 1074.26 1253.13 C1074.26 1253.79 1074.26 1254.45 1074.26 1255.13 C1072.36 1256.81 1070.47 1258.35 1068.45 1259.88 C1067.86 1260.32 1067.28 1260.77 1066.68 1261.22 C1053.41 1271.13 1053.41 1271.13 1047.26 1271.13 C1047.26 1271.79 1047.26 1272.45 1047.26 1273.13 C1046.43 1273.39 1045.61 1273.66 1044.76 1273.94 C1042.24 1274.79 1039.79 1275.7 1037.32 1276.69 C1033.67 1278.08 1030.14 1278.65 1026.26 1279.13 C1025.93 1279.46 1025.6 1279.79 1025.26 1280.13 C1023.08 1280.23 1020.89 1280.26 1018.71 1280.27 C1018.02 1280.27 1017.32 1280.27 1016.6 1280.27 C1014.24 1280.28 1011.88 1280.28 1009.52 1280.29 C1007.82 1280.29 1006.12 1280.3 1004.43 1280.3 C999.74 1280.32 995.05 1280.32 990.36 1280.33 C986.34 1280.34 982.33 1280.35 978.31 1280.36 C965.07 1280.39 951.83 1280.41 938.6 1280.43 C935.15 1280.43 931.7 1280.44 928.26 1280.44 C906.87 1280.47 885.48 1280.5 864.1 1280.52 C859.14 1280.52 854.18 1280.53 849.23 1280.53 C847.38 1280.53 847.38 1280.53 845.49 1280.53 C825.53 1280.55 805.57 1280.59 785.61 1280.64 C765.14 1280.69 744.66 1280.72 724.18 1280.73 C712.67 1280.74 701.17 1280.75 689.67 1280.79 C679.87 1280.82 670.07 1280.84 660.27 1280.83 C655.27 1280.82 650.27 1280.82 645.28 1280.85 C640.7 1280.88 636.12 1280.88 631.54 1280.86 C629.89 1280.86 628.23 1280.86 626.58 1280.88 C617.49 1280.97 610.2 1280.8 603.26 1274.13 C601.1 1271.64 601.1 1271.64 599.76 1269.38 C599.3 1268.62 598.83 1267.86 598.35 1267.08 C595.04 1261.16 595.34 1253.77 596.26 1247.13 C599.07 1239.39 604.2 1234.13 611.51 1230.52 C615.4 1229.07 618.15 1228.75 622.28 1228.75 C622.95 1228.74 623.62 1228.74 624.32 1228.73 C626.57 1228.72 628.82 1228.73 631.07 1228.74 C632.7 1228.74 634.33 1228.73 635.96 1228.72 C640.44 1228.71 644.92 1228.71 649.4 1228.72 C654.24 1228.73 659.07 1228.71 663.91 1228.7 C672.28 1228.69 680.66 1228.68 689.03 1228.68 C701.15 1228.69 713.27 1228.67 725.39 1228.65 C745.07 1228.62 764.75 1228.59 784.43 1228.58 C785.61 1228.58 786.78 1228.58 788 1228.58 C792.77 1228.58 797.54 1228.57 802.31 1228.57 C815.44 1228.56 828.57 1228.55 841.7 1228.54 C842.88 1228.54 844.05 1228.54 845.26 1228.54 C864.86 1228.52 884.47 1228.49 904.07 1228.46 C916.15 1228.44 928.24 1228.43 940.33 1228.43 C948.62 1228.43 956.9 1228.42 965.18 1228.41 C969.96 1228.4 974.74 1228.4 979.52 1228.4 C983.9 1228.4 988.28 1228.4 992.65 1228.39 C994.24 1228.39 995.82 1228.39 997.4 1228.39 C1010.74 1228.75 1010.74 1228.75 1023.34 1225.06 C1025.26 1224.13 1025.26 1224.13 1028.26 1224.13 C1028.26 1223.47 1028.26 1222.81 1028.26 1222.13 C1034.88 1218.25 1034.88 1218.25 1038.26 1217.13 C1038.26 1216.47 1038.26 1215.81 1038.26 1215.13 C1039.63 1213.5 1039.63 1213.5 1041.26 1212.13 C1041.92 1212.13 1042.58 1212.13 1043.26 1212.13 C1044.47 1209.79 1045.43 1207.63 1046.26 1205.13 C1046.92 1205.13 1047.58 1205.13 1048.26 1205.13 C1048.36 1204.44 1048.47 1203.76 1048.57 1203.06 C1049.26 1200.13 1049.26 1200.13 1050.76 1196.81 C1053.35 1190.46 1053.41 1183.94 1053.39 1177.15 C1053.39 1176.39 1053.39 1175.62 1053.39 1174.83 C1053.39 1172.27 1053.39 1169.7 1053.39 1167.14 C1053.39 1165.27 1053.39 1163.41 1053.39 1161.54 C1053.39 1156.4 1053.39 1151.26 1053.39 1146.11 C1053.39 1140.52 1053.39 1134.93 1053.39 1129.34 C1053.4 1119.54 1053.39 1109.74 1053.39 1099.94 C1053.39 1089.42 1053.39 1078.91 1053.39 1068.39 C1053.39 1067.39 1053.39 1067.39 1053.39 1066.38 C1053.39 1063.67 1053.39 1060.97 1053.39 1058.26 C1053.4 1033.06 1053.4 1007.86 1053.4 982.66 C1053.4 981.54 1053.4 981.54 1053.4 980.4 C1053.4 979.65 1053.4 978.9 1053.4 978.13 C1053.39 955.35 1053.39 932.58 1053.39 909.8 C1053.39 908.27 1053.39 906.75 1053.39 905.23 C1053.39 899.1 1053.39 892.97 1053.39 886.85 C1053.4 869.72 1053.4 852.59 1053.4 835.46 C1053.4 834.29 1053.4 834.29 1053.4 833.1 C1053.4 808.24 1053.4 783.38 1053.39 758.53 C1053.39 757.72 1053.39 756.92 1053.39 756.08 C1053.39 742.99 1053.39 729.89 1053.39 716.8 C1053.39 664.86 1053.39 612.92 1053.39 560.99 C1053.39 547.9 1053.39 534.81 1053.39 521.72 C1053.39 520.92 1053.39 520.11 1053.39 519.28 C1053.4 494.45 1053.4 469.62 1053.4 444.79 C1053.4 444.01 1053.4 443.23 1053.4 442.43 C1053.4 425.32 1053.4 408.21 1053.39 391.1 C1053.39 384.98 1053.39 378.86 1053.39 372.74 C1053.39 371.21 1053.39 369.69 1053.39 368.17 C1053.39 345.4 1053.39 322.62 1053.4 299.85 C1053.4 299.11 1053.4 298.36 1053.4 297.59 C1053.4 296.47 1053.4 296.47 1053.4 295.33 C1053.4 270.21 1053.4 245.08 1053.39 219.95 C1053.39 217.26 1053.39 214.56 1053.39 211.86 C1053.39 210.87 1053.39 210.87 1053.39 209.86 C1053.39 198.73 1053.39 187.6 1053.39 176.47 C1053.4 166.8 1053.39 157.13 1053.39 147.46 C1053.39 141.94 1053.39 136.43 1053.39 130.91 C1053.39 125.89 1053.39 120.88 1053.39 115.86 C1053.39 114.06 1053.39 112.25 1053.39 110.45 C1053.39 108 1053.39 105.55 1053.39 103.1 C1053.39 102.4 1053.39 101.7 1053.39 100.98 C1053.37 94.52 1053.15 88.18 1050.2 82.31 C1048.81 79.52 1048.26 78.31 1048.26 75.13 C1047.6 75.13 1046.94 75.13 1046.26 75.13 C1043.26 70.74 1043.26 70.74 1043.26 68.13 C1042.6 68.13 1041.94 68.13 1041.26 68.13 C1039.63 66.75 1039.63 66.75 1038.26 65.13 C1038.26 64.47 1038.26 63.81 1038.26 63.13 C1037.6 63.13 1036.94 63.13 1036.26 63.13 C1036.26 62.47 1036.26 61.81 1036.26 61.13 C1035.74 61.04 1035.23 60.96 1034.7 60.88 C1031.86 60 1029.58 58.68 1027.04 57.16 C1016.89 51.26 1005.77 51.84 994.38 51.87 C992.66 51.87 990.94 51.87 989.21 51.86 C984.48 51.86 979.75 51.86 975.02 51.87 C969.87 51.87 964.73 51.87 959.58 51.86 C950.56 51.85 941.54 51.85 932.52 51.86 C919.1 51.87 905.69 51.86 892.27 51.86 C869.71 51.85 847.14 51.85 824.57 51.85 C823.88 51.85 823.2 51.85 822.49 51.85 C821.8 51.85 821.11 51.85 820.4 51.85 C799.44 51.86 778.47 51.86 757.51 51.86 C756.11 51.86 754.7 51.86 753.3 51.86 C747.66 51.86 742.02 51.86 736.37 51.86 C720.6 51.85 704.84 51.85 689.07 51.85 C687.99 51.85 687.99 51.85 686.89 51.85 C664.01 51.85 641.12 51.85 618.24 51.86 C617.13 51.86 617.13 51.86 615.99 51.86 C603.94 51.86 591.89 51.86 579.83 51.87 C532.03 51.87 484.22 51.87 436.42 51.86 C424.37 51.86 412.33 51.86 400.28 51.86 C399.17 51.86 399.17 51.86 398.03 51.86 C375.17 51.85 352.31 51.85 329.45 51.85 C328.74 51.85 328.02 51.85 327.28 51.85 C311.53 51.85 295.78 51.85 280.02 51.86 C274.39 51.86 268.75 51.86 263.11 51.86 C261.71 51.86 260.31 51.86 258.91 51.86 C237.95 51.86 216.99 51.86 196.03 51.85 C195 51.85 195 51.85 193.95 51.85 C192.92 51.85 192.92 51.85 191.87 51.85 C168.74 51.85 145.61 51.85 122.49 51.86 C109.15 51.87 95.81 51.87 82.47 51.86 C73.57 51.85 64.67 51.86 55.76 51.87 C50.69 51.87 45.61 51.87 40.53 51.86 C35.92 51.86 31.3 51.86 26.68 51.87 C25.02 51.87 23.36 51.87 21.7 51.87 C6.32 51.69 6.32 51.69 -8.05 56.63 C-11.23 58.35 -14.36 59.83 -17.74 61.13 C-17.74 61.79 -17.74 62.45 -17.74 63.13 C-20.12 65.75 -20.12 65.75 -22.74 68.13 C-23.4 68.13 -24.06 68.13 -24.74 68.13 C-25.02 68.7 -25.3 69.26 -25.58 69.85 C-26.73 72.11 -27.97 74.3 -29.24 76.5 C-33.81 84.73 -34.9 92.64 -34.87 101.99 C-34.87 102.76 -34.87 103.52 -34.87 104.31 C-34.87 106.88 -34.87 109.45 -34.87 112.02 C-34.87 113.89 -34.87 115.76 -34.87 117.63 C-34.87 122.78 -34.87 127.94 -34.87 133.09 C-34.87 138.69 -34.87 144.29 -34.87 149.89 C-34.88 159.71 -34.88 169.54 -34.87 179.36 C-34.87 189.9 -34.87 200.44 -34.87 210.98 C-34.87 211.64 -34.87 212.31 -34.87 213 C-34.87 215.71 -34.87 218.42 -34.87 221.13 C-34.88 246.38 -34.88 271.63 -34.88 296.89 C-34.88 297.63 -34.88 298.38 -34.88 299.15 C-34.88 299.9 -34.88 300.65 -34.88 301.42 C-34.87 324.25 -34.87 347.07 -34.87 369.9 C-34.87 371.43 -34.87 372.96 -34.87 374.48 C-34.87 380.62 -34.87 386.76 -34.88 392.9 C-34.88 410.06 -34.88 427.22 -34.88 444.38 C-34.88 445.16 -34.88 445.95 -34.88 446.75 C-34.88 471.66 -34.88 496.57 -34.87 521.47 C-34.87 522.69 -34.87 522.69 -34.87 523.92 C-34.87 537.05 -34.87 550.17 -34.87 563.29 C-34.87 615.34 -34.87 667.38 -34.87 719.43 C-34.87 732.54 -34.87 745.66 -34.87 758.78 C-34.87 759.58 -34.87 760.39 -34.87 761.22 C-34.88 786.1 -34.88 810.99 -34.88 835.87 C-34.88 836.65 -34.88 837.43 -34.88 838.23 C-34.88 855.38 -34.88 872.52 -34.88 889.66 C-34.87 895.79 -34.87 901.93 -34.87 908.06 C-34.87 909.59 -34.87 911.11 -34.87 912.64 C-34.87 935.46 -34.87 958.28 -34.88 981.1 C-34.88 981.85 -34.88 982.59 -34.88 983.37 C-34.88 984.11 -34.88 984.86 -34.88 985.63 C-34.88 1010.81 -34.88 1035.99 -34.87 1061.16 C-34.87 1063.87 -34.87 1066.57 -34.87 1069.27 C-34.87 1069.93 -34.87 1070.6 -34.87 1071.28 C-34.87 1082.43 -34.87 1093.59 -34.87 1104.74 C-34.88 1114.43 -34.87 1124.12 -34.87 1133.81 C-34.87 1139.34 -34.87 1144.87 -34.87 1150.4 C-34.87 1155.42 -34.87 1160.45 -34.87 1165.47 C-34.87 1167.28 -34.87 1169.09 -34.87 1170.9 C-34.87 1173.36 -34.87 1175.81 -34.87 1178.26 C-34.87 1178.96 -34.87 1179.67 -34.87 1180.39 C-34.85 1186.59 -34.45 1192.27 -31.68 1197.88 C-30.3 1200.68 -29.74 1201.94 -29.74 1205.13 C-29.08 1205.13 -28.42 1205.13 -27.74 1205.13 C-24.74 1209.51 -24.74 1209.51 -24.74 1212.13 C-24.08 1212.13 -23.42 1212.13 -22.74 1212.13 C-21.12 1213.5 -21.12 1213.5 -19.74 1215.13 C-19.74 1215.79 -19.74 1216.45 -19.74 1217.13 C-19.08 1217.13 -18.42 1217.13 -17.74 1217.13 C-17.74 1217.79 -17.74 1218.45 -17.74 1219.13 C-17.22 1219.21 -16.71 1219.29 -16.18 1219.38 C-13.34 1220.25 -11.06 1221.57 -8.52 1223.09 C1.43 1228.87 12.23 1228.41 23.43 1228.37 C25.06 1228.37 26.7 1228.37 28.33 1228.38 C32.81 1228.38 37.28 1228.38 41.75 1228.37 C46.58 1228.36 51.42 1228.37 56.25 1228.37 C64.61 1228.38 72.98 1228.37 81.35 1228.37 C94.58 1228.36 107.8 1228.37 121.03 1228.39 C125.56 1228.39 130.09 1228.4 134.62 1228.4 C135.75 1228.4 136.88 1228.4 138.04 1228.4 C150.91 1228.42 163.78 1228.42 176.65 1228.43 C178.42 1228.43 178.42 1228.43 180.22 1228.43 C199.29 1228.44 218.36 1228.44 237.42 1228.43 C257.01 1228.42 276.6 1228.44 296.19 1228.47 C308.27 1228.48 320.34 1228.49 332.42 1228.47 C340.69 1228.46 348.97 1228.46 357.24 1228.48 C362.02 1228.49 366.79 1228.5 371.56 1228.48 C375.93 1228.46 380.31 1228.47 384.68 1228.49 C386.26 1228.5 387.84 1228.49 389.41 1228.48 C399.8 1228.4 407.7 1229.5 415.88 1236.31 C417.26 1238.13 417.26 1238.13 417.26 1240.13 C417.92 1240.13 418.58 1240.13 419.26 1240.13 C422.28 1245.18 422.84 1249.2 422.82 1254.94 C422.82 1255.74 422.82 1256.54 422.81 1257.36 C422.57 1265.07 420.11 1269.34 414.67 1274.7 C409.61 1279.21 406.05 1280.38 399.32 1280.37 C398.62 1280.38 397.92 1280.38 397.19 1280.38 C394.83 1280.39 392.47 1280.38 390.11 1280.37 C388.4 1280.37 386.69 1280.38 384.99 1280.38 C380.29 1280.39 375.59 1280.38 370.89 1280.37 C365.83 1280.37 360.77 1280.37 355.71 1280.37 C345.79 1280.38 335.86 1280.37 325.94 1280.36 C314.4 1280.35 302.86 1280.35 291.32 1280.35 C270.73 1280.35 250.15 1280.35 229.56 1280.33 C209.56 1280.32 189.57 1280.31 169.57 1280.31 C167.72 1280.31 167.72 1280.31 165.83 1280.31 C164.6 1280.31 163.38 1280.31 162.11 1280.31 C139.37 1280.31 116.63 1280.31 93.89 1280.3 C85.84 1280.29 77.78 1280.29 69.73 1280.29 C59.92 1280.29 50.11 1280.29 40.31 1280.28 C35.3 1280.27 30.29 1280.27 25.28 1280.27 C20.7 1280.27 16.13 1280.27 11.55 1280.26 C9.89 1280.26 8.22 1280.26 6.56 1280.26 C4.31 1280.26 2.07 1280.26 -0.18 1280.25 C-1.43 1280.25 -2.68 1280.25 -3.97 1280.25 C-6.74 1280.13 -6.74 1280.13 -7.74 1279.13 C-9.11 1278.8 -10.49 1278.52 -11.87 1278.25 C-14.91 1277.61 -17.65 1276.84 -20.49 1275.56 C-23.31 1274.31 -25.71 1273.58 -28.74 1273.13 C-28.74 1272.47 -28.74 1271.81 -28.74 1271.13 C-29.44 1271.04 -30.13 1270.94 -30.85 1270.85 C-39.5 1268.68 -49.35 1261.23 -55.74 1255.13 C-55.74 1254.47 -55.74 1253.81 -55.74 1253.13 C-56.73 1252.8 -57.72 1252.47 -58.74 1252.13 C-58.74 1251.47 -58.74 1250.81 -58.74 1250.13 C-59.4 1250.13 -60.06 1250.13 -60.74 1250.13 C-62.69 1248.01 -62.69 1248.01 -64.87 1245.25 C-65.59 1244.35 -66.31 1243.44 -67.06 1242.51 C-68.74 1240.13 -68.74 1240.13 -68.74 1238.13 C-69.4 1238.13 -70.06 1238.13 -70.74 1238.13 C-77.97 1228.35 -83.13 1215.95 -85.74 1204.13 C-85.99 1203.04 -86.23 1201.96 -86.49 1200.84 C-88.72 1190.16 -89.16 1179.97 -89.12 1169.08 C-89.12 1167.2 -89.13 1165.32 -89.13 1163.44 C-89.14 1158.28 -89.14 1153.13 -89.13 1147.97 C-89.12 1142.36 -89.13 1136.75 -89.14 1131.13 C-89.15 1121.3 -89.15 1111.46 -89.14 1101.63 C-89.13 1091.08 -89.13 1080.54 -89.13 1069.99 C-89.13 1069.32 -89.14 1068.66 -89.14 1067.97 C-89.14 1065.25 -89.14 1062.53 -89.14 1059.82 C-89.16 1034.53 -89.16 1009.24 -89.15 983.95 C-89.15 983.2 -89.15 982.45 -89.15 981.68 C-89.15 980.93 -89.15 980.18 -89.15 979.41 C-89.14 956.55 -89.14 933.69 -89.14 910.84 C-89.14 909.31 -89.14 907.78 -89.14 906.24 C-89.14 900.09 -89.14 893.94 -89.15 887.78 C-89.15 870.58 -89.15 853.38 -89.15 836.18 C-89.15 835.39 -89.15 834.61 -89.15 833.8 C-89.15 808.85 -89.15 783.89 -89.14 758.94 C-89.14 758.13 -89.14 757.32 -89.14 756.49 C-89.14 743.35 -89.13 730.2 -89.13 717.06 C-89.12 664.95 -89.12 612.83 -89.13 560.72 C-89.14 547.58 -89.14 534.45 -89.14 521.31 C-89.14 520.5 -89.14 519.69 -89.14 518.86 C-89.15 493.93 -89.15 469 -89.15 444.07 C-89.15 443.29 -89.15 442.51 -89.15 441.7 C-89.15 424.52 -89.15 407.34 -89.14 390.15 C-89.14 384 -89.14 377.86 -89.14 371.71 C-89.14 370.18 -89.14 368.65 -89.14 367.12 C-89.14 344.27 -89.14 321.42 -89.15 298.57 C-89.15 297.82 -89.15 297.07 -89.15 296.3 C-89.15 295.56 -89.15 294.81 -89.15 294.04 C-89.16 268.82 -89.16 243.6 -89.14 218.39 C-89.14 215.68 -89.14 212.97 -89.13 210.26 C-89.13 209.59 -89.13 208.93 -89.13 208.24 C-89.13 197.09 -89.13 185.93 -89.14 174.78 C-89.15 165.07 -89.14 155.36 -89.13 145.65 C-89.12 140.12 -89.12 134.59 -89.13 129.06 C-89.14 124.02 -89.14 118.98 -89.12 113.94 C-89.12 112.13 -89.12 110.33 -89.13 108.52 C-89.22 84.97 -84.16 61.9 -70.74 42.13 C-70.08 42.13 -69.42 42.13 -68.74 42.13 C-68.5 41.41 -68.27 40.69 -68.02 39.96 C-66.53 36.67 -64.67 34.48 -62.24 31.81 C-61.45 30.93 -60.65 30.05 -59.83 29.14 C-57.74 27.13 -57.74 27.13 -55.74 27.13 C-55.74 26.47 -55.74 25.81 -55.74 25.13 C-53.84 23.45 -51.95 21.9 -49.93 20.38 C-49.05 19.71 -49.05 19.71 -48.16 19.03 C-34.89 9.13 -34.89 9.13 -28.74 9.13 C-28.74 8.47 -28.74 7.81 -28.74 7.13 C-27.92 6.86 -27.09 6.59 -26.24 6.31 C-23.72 5.46 -21.27 4.55 -18.8 3.56 C-15.15 2.17 -11.62 1.6 -7.74 1.13 C-5.85 -0.77 -2.51 0 0 0 Z " fill="white" transform="translate(130.74026203155518,-0.12534916400909424)"/>
<path d="M0 0 C2.88 0.02 5.76 0 8.64 -0.02 C38.63 -0.05 38.63 -0.05 47.51 4.39 C49.45 4.57 49.45 4.57 51.42 4.75 C57.18 5.35 62.55 6.92 68.08 8.58 C69.66 9.05 69.66 9.05 71.28 9.53 C84.51 13.53 96.83 18.28 109.09 24.66 C111.87 26.06 114.6 27.3 117.51 28.39 C117.51 29.05 117.51 29.71 117.51 30.39 C118.18 30.46 118.84 30.54 119.53 30.61 C123.58 31.67 126.77 33.65 130.33 35.83 C131.02 36.24 131.71 36.64 132.43 37.06 C134.16 38.11 135.84 39.25 137.51 40.39 C137.51 41.05 137.51 41.71 137.51 42.39 C138.09 42.5 138.67 42.61 139.27 42.73 C141.77 43.47 143.32 44.49 145.41 46.04 C146.47 46.84 146.47 46.84 147.55 47.65 C148.28 48.2 149.01 48.76 149.76 49.33 C150.51 49.88 151.25 50.43 152.02 51 C152.73 51.53 153.43 52.06 154.16 52.61 C154.8 53.09 155.44 53.58 156.11 54.08 C156.8 54.73 156.8 54.73 157.51 55.39 C157.51 56.05 157.51 56.71 157.51 57.39 C158.06 57.62 158.6 57.84 159.16 58.07 C162.23 59.79 164.65 62.06 167.2 64.45 C167.73 64.94 168.25 65.43 168.79 65.93 C182.22 78.47 182.22 78.47 185.51 83.39 C185.51 84.05 185.51 84.71 185.51 85.39 C186.17 85.39 186.83 85.39 187.51 85.39 C189.31 87.48 190.99 89.57 192.64 91.77 C193.11 92.37 193.58 92.97 194.06 93.59 C197.51 98.13 197.51 98.13 197.51 100.39 C198.17 100.39 198.83 100.39 199.51 100.39 C201.21 102.66 201.21 102.66 203.08 105.64 C203.7 106.62 204.32 107.59 204.96 108.59 C206.27 110.96 207.06 112.75 207.51 115.39 C208.17 115.39 208.83 115.39 209.51 115.39 C219.9 132.82 228.29 151.07 234.51 170.39 C235.03 171.89 235.56 173.39 236.08 174.89 C237.88 180.31 239.2 185.84 240.51 191.39 C240.71 192.18 240.91 192.96 241.11 193.77 C242.28 198.62 242.85 203.37 243.22 208.34 C243.5 211.26 243.99 214.05 244.53 216.93 C245.87 225.49 245.81 234.02 245.78 242.66 C245.76 245.45 245.78 248.25 245.79 251.04 C245.79 259.49 245.7 267.67 243.98 275.98 C243.48 278.57 243.28 281.08 243.14 283.7 C242.68 289.62 241.09 295.14 239.45 300.81 C238.45 304.33 238.45 304.33 238.08 307.78 C237.39 312.22 236.05 316.18 234.51 320.39 C234.17 321.35 233.82 322.3 233.46 323.29 C228.99 335.4 224.38 347.28 218.39 358.72 C216.35 362.63 214.61 366.65 212.89 370.7 C210.5 376.29 207.84 381.59 204.85 386.89 C203.14 390.1 201.87 393.4 200.57 396.79 C198.16 402.71 195.08 408.34 192.16 414.02 C190.1 418.07 188.2 422.09 186.58 426.33 C185.15 430.02 183.47 433.39 181.51 436.83 C178.99 441.34 177.12 445.82 175.45 450.7 C174.54 453.33 173.52 455.88 172.45 458.45 C170.79 462.56 169.46 466.7 168.23 470.96 C167.55 473.27 166.8 475.55 166.01 477.83 C161.56 491.12 158.46 504.76 157.73 518.78 C157.51 521.39 157.51 521.39 156.51 524.39 C156.32 525.83 156.15 527.28 156.01 528.73 C155.93 529.57 155.85 530.4 155.76 531.26 C155.68 532.13 155.6 533 155.51 533.89 C155.35 535.61 155.18 537.33 155.01 539.05 C154.94 539.81 154.87 540.57 154.8 541.35 C154.51 543.39 154.51 543.39 153.51 546.39 C153.38 548.2 153.28 550.01 153.2 551.83 C152.6 560.35 150.78 568.56 149.02 576.9 C147.99 581.95 147.12 587.03 146.23 592.11 C145.58 595.08 144.71 597.61 143.51 600.39 C143.05 601.98 142.59 603.58 142.14 605.17 C137.85 620.4 137.85 620.4 133.51 627.39 C132.79 629.1 132.06 630.81 131.34 632.52 C127.5 641.22 122.3 649.15 116.18 656.4 C114.37 658.49 114.37 658.49 112.51 661.39 C111.85 661.39 111.19 661.39 110.51 661.39 C110.3 661.93 110.08 662.47 109.86 663.03 C108.05 666.21 105.6 668.6 103.01 671.14 C102.52 671.65 102.02 672.15 101.5 672.68 C97.77 676.39 97.77 676.39 95.51 676.39 C95.51 677.05 95.51 677.71 95.51 678.39 C93.83 679.9 93.83 679.9 91.64 681.52 C90.92 682.05 90.2 682.59 89.46 683.15 C87.51 684.39 87.51 684.39 85.51 684.39 C85.51 685.05 85.51 685.71 85.51 686.39 C84.52 686.39 83.53 686.39 82.51 686.39 C82.51 687.05 82.51 687.71 82.51 688.39 C71.56 694.83 60.73 700.68 48.51 704.39 C47.36 704.76 46.2 705.13 45.01 705.52 C41.61 706.37 38.41 706.79 34.92 707.05 C32.37 707.34 32.37 707.34 29.43 708.38 C24.5 709.84 19.5 709.9 14.39 710.08 C13.34 710.12 12.29 710.16 11.22 710.2 C4.14 710.42 -2.91 710.39 -9.99 710.08 C-10.83 710.04 -11.67 710.01 -12.53 709.97 C-17.76 709.69 -22.43 708.74 -27.49 707.39 C-28.92 707.2 -30.36 707.05 -31.8 706.95 C-39.25 706.22 -46.38 703.95 -53.32 701.2 C-56.03 700.19 -58.79 699.33 -61.55 698.45 C-66.31 696.88 -70.21 694.99 -74.49 692.39 C-76.19 691.67 -77.89 690.96 -79.59 690.24 C-82.72 688.84 -85.65 687.12 -88.61 685.39 C-89.2 685.05 -89.8 684.71 -90.41 684.35 C-92.11 683.37 -93.8 682.38 -95.49 681.39 C-96.45 680.85 -97.42 680.32 -98.42 679.77 C-99.44 679.09 -99.44 679.09 -100.49 678.39 C-100.49 677.73 -100.49 677.07 -100.49 676.39 C-101.48 676.39 -102.47 676.39 -103.49 676.39 C-103.49 675.73 -103.49 675.07 -103.49 674.39 C-104.02 674.14 -104.56 673.9 -105.11 673.64 C-108.07 672.08 -110.78 670.36 -113.49 668.39 C-113.49 667.73 -113.49 667.07 -113.49 666.39 C-114.12 666.12 -114.76 665.85 -115.42 665.58 C-117.49 664.39 -117.49 664.39 -118.49 661.39 C-119.15 661.06 -119.81 660.73 -120.49 660.39 C-122.49 659.39 -122.49 659.39 -123.49 656.39 C-124.48 656.06 -125.47 655.73 -126.49 655.39 C-126.49 654.73 -126.49 654.07 -126.49 653.39 C-127.15 653.39 -127.81 653.39 -128.49 653.39 C-129.77 651.93 -129.77 651.93 -131.11 650.02 C-131.78 649.08 -131.78 649.08 -132.46 648.12 C-133.49 646.39 -133.49 646.39 -133.49 644.39 C-134.15 644.39 -134.81 644.39 -135.49 644.39 C-138.4 640.22 -140.9 635.78 -143.49 631.39 C-143.97 630.61 -144.45 629.82 -144.95 629.02 C-151.06 618.74 -154.23 607.05 -156.49 595.39 C-156.69 594.4 -156.9 593.4 -157.11 592.38 C-160.39 573.89 -159.15 554.71 -155.49 536.39 C-155.31 535.38 -155.13 534.36 -154.95 533.32 C-153.95 527.81 -152.38 522.65 -150.49 517.39 C-150.11 516.32 -149.74 515.24 -149.36 514.14 C-145.59 503.37 -141.6 492.97 -135.92 483.06 C-134.23 479.91 -132.89 476.67 -131.49 473.39 C-130.3 471.04 -129.11 468.71 -127.86 466.39 C-127.52 465.75 -127.18 465.12 -126.83 464.46 C-123.85 458.94 -120.66 453.56 -117.37 448.23 C-115.77 445.63 -114.45 443.3 -113.49 440.39 C-112.83 440.39 -112.17 440.39 -111.49 440.39 C-111.32 439.3 -111.32 439.3 -111.16 438.19 C-110.44 435.19 -109.38 433.23 -107.74 430.64 C-106.93 429.33 -106.93 429.33 -106.1 428 C-105.57 427.14 -105.04 426.28 -104.49 425.39 C-101.08 419.75 -98.54 414.18 -96.39 407.95 C-95.66 405.88 -94.81 403.84 -93.92 401.83 C-89.69 391.7 -88.04 381.2 -86.49 370.39 C-86.37 369.62 -86.26 368.85 -86.14 368.06 C-84.67 357.64 -84.33 347.9 -85.49 337.39 C-85.56 336.68 -85.63 335.97 -85.71 335.24 C-87.02 322.38 -89.14 311.17 -94.41 299.31 C-95.68 296.46 -96.49 294.55 -96.49 291.39 C-97.15 291.39 -97.81 291.39 -98.49 291.39 C-98.85 290.71 -99.21 290.04 -99.59 289.34 C-103.53 282.03 -107.72 274.91 -112.06 267.82 C-114.65 263.55 -117.11 259.28 -119.29 254.78 C-120.94 251.49 -122.68 248.26 -124.42 245.02 C-128.97 236.5 -133.33 228.19 -136.52 219.05 C-137.42 216.57 -138.44 214.22 -139.55 211.83 C-141.32 207.94 -142.54 204.03 -143.7 199.93 C-144.51 197.32 -145.49 194.85 -146.55 192.33 C-148.12 188.5 -149.19 184.81 -149.99 180.75 C-150.53 178.2 -151.22 175.72 -151.92 173.2 C-160.31 139.71 -157.55 104.76 -140.49 74.39 C-140 73.49 -139.51 72.6 -139 71.67 C-137.85 69.57 -136.67 67.48 -135.49 65.39 C-134.83 65.39 -134.17 65.39 -133.49 65.39 C-133.24 64.68 -132.99 63.96 -132.74 63.22 C-131.35 60.08 -129.64 57.75 -127.49 55.08 C-126.78 54.2 -126.08 53.31 -125.36 52.4 C-124.74 51.74 -124.12 51.08 -123.49 50.39 C-122.83 50.39 -122.17 50.39 -121.49 50.39 C-121.24 49.81 -120.99 49.24 -120.74 48.64 C-119.3 46.06 -117.7 44.33 -115.49 42.39 C-114.83 42.39 -114.17 42.39 -113.49 42.39 C-113.49 41.73 -113.49 41.07 -113.49 40.39 C-112.83 40.39 -112.17 40.39 -111.49 40.39 C-111.49 39.73 -111.49 39.07 -111.49 38.39 C-108.02 35.39 -108.02 35.39 -105.49 35.39 C-105.49 34.73 -105.49 34.07 -105.49 33.39 C-103.51 32.9 -103.51 32.9 -101.49 32.39 C-101.49 31.73 -101.49 31.07 -101.49 30.39 C-100.5 30.39 -99.51 30.39 -98.49 30.39 C-98.49 29.73 -98.49 29.07 -98.49 28.39 C-88.01 20.95 -76.58 15.6 -64.49 11.39 C-63.11 10.87 -61.73 10.35 -60.36 9.83 C-53.86 7.4 -47.47 5.18 -40.62 3.96 C-38.34 3.55 -36.06 3.11 -33.79 2.65 C-22.49 0.48 -11.49 -0.08 0 0 Z M-37.49 57.39 C-38.59 57.74 -39.69 58.09 -40.82 58.45 C-63.68 66.14 -84.16 79.42 -95.49 101.39 C-96.95 104.35 -98.27 107.32 -99.49 110.39 C-99.77 111.11 -100.06 111.83 -100.36 112.57 C-103.9 122.15 -103.76 132.3 -103.49 142.39 C-103.47 143.28 -103.45 144.16 -103.43 145.08 C-103.1 151.89 -101.72 158.39 -100.17 165.02 C-99.87 166.32 -99.87 166.32 -99.56 167.65 C-98.25 173.04 -96.53 178.08 -94.4 183.2 C-93.37 185.67 -92.48 188.17 -91.61 190.7 C-89.53 196.46 -87.02 201.95 -84.39 207.47 C-83.39 209.59 -82.42 211.71 -81.45 213.84 C-76.42 224.79 -70.76 235.12 -64.49 245.39 C-46.23 275.33 -46.23 275.33 -43.09 287.12 C-42.51 289.3 -41.8 291.39 -41.05 293.52 C-39.65 297.68 -38.51 301.89 -37.42 306.14 C-37.1 307.39 -36.78 308.65 -36.45 309.94 C-36.12 311.42 -35.8 312.9 -35.49 314.39 C-35.3 315.27 -35.12 316.14 -34.93 317.04 C-33.17 326.73 -33.15 336.37 -33.17 346.18 C-33.17 349.06 -33.15 351.93 -33.12 354.8 C-33.07 369.96 -34.9 384.12 -38.8 398.79 C-39.44 401.23 -39.98 403.67 -40.49 406.14 C-41.25 409.63 -42.32 412.84 -43.64 416.16 C-44.67 418.89 -45.54 421.67 -46.42 424.45 C-47.99 429.22 -49.89 433.12 -52.49 437.39 C-53.21 439.06 -53.94 440.74 -54.63 442.42 C-56.09 445.78 -57.81 449.01 -59.5 452.25 C-60.63 454.3 -60.63 454.3 -60.49 456.39 C-61.15 456.39 -61.81 456.39 -62.49 456.39 C-62.79 457.05 -63.1 457.71 -63.41 458.38 C-66.56 464.94 -70.08 471.1 -73.92 477.27 C-77.97 483.78 -81.6 490.31 -84.93 497.22 C-86.41 500.24 -88.01 503.15 -89.67 506.08 C-92.15 510.55 -93.96 515.06 -95.62 519.9 C-96.34 521.97 -97.18 524 -98.05 526.02 C-103.87 539.68 -105.67 553.13 -105.61 567.89 C-105.61 568.87 -105.62 569.85 -105.62 570.86 C-105.61 580.32 -104.81 588.53 -101.49 597.39 C-101.22 598.18 -100.95 598.98 -100.68 599.79 C-98.18 606.79 -94.39 612.81 -89.49 618.39 C-88.83 618.39 -88.17 618.39 -87.49 618.39 C-87.22 618.99 -86.95 619.59 -86.67 620.2 C-85.49 622.39 -84.39 623.8 -82.49 625.39 C-81.83 625.39 -81.17 625.39 -80.49 625.39 C-80.16 626.38 -79.83 627.37 -79.49 628.39 C-78.83 628.39 -78.17 628.39 -77.49 628.39 C-77.49 629.05 -77.49 629.71 -77.49 630.39 C-74.26 632.71 -74.26 632.71 -70.49 633.39 C-70.49 634.05 -70.49 634.71 -70.49 635.39 C-47.23 648.83 -25.14 657.85 2.13 657.6 C4.17 657.58 6.22 657.58 8.26 657.58 C14.57 657.9 14.57 657.9 20.51 656.39 C22.37 656.27 22.37 656.27 24.26 656.14 C33.14 655.25 41.67 651.46 49.51 647.39 C49.51 646.73 49.51 646.07 49.51 645.39 C50.32 645.27 50.32 645.27 51.14 645.14 C54.39 644.12 56.8 642.43 59.51 640.39 C59.51 639.73 59.51 639.07 59.51 638.39 C60.07 638.14 60.63 637.9 61.2 637.64 C66.39 634.84 69.95 630.93 73.45 626.27 C73.89 625.69 74.32 625.12 74.77 624.53 C78.39 619.69 81.61 614.69 84.51 609.39 C85.06 608.43 85.06 608.43 85.62 607.45 C88.88 601.44 90.64 594.94 92.51 588.39 C92.72 587.67 92.93 586.95 93.14 586.21 C93.3 585.63 93.47 585.05 93.64 584.45 C94.2 582.48 94.82 580.51 95.5 578.57 C96.48 575.51 97.07 572.62 97.55 569.44 C97.72 568.35 97.89 567.25 98.06 566.12 C98.23 564.99 98.4 563.87 98.58 562.7 C98.92 560.45 99.26 558.2 99.61 555.94 C99.76 554.95 99.91 553.95 100.07 552.93 C100.51 550.39 100.51 550.39 101.51 547.39 C101.7 545.31 101.84 543.23 101.95 541.14 C102.57 531.75 103.6 522.41 105.58 513.2 C106.33 509.69 106.71 506.29 106.95 502.7 C107.47 495.46 108.98 488.48 110.51 481.39 C110.7 480.49 110.89 479.58 111.08 478.65 C111.98 474.44 113.13 470.47 114.51 466.39 C114.98 464.64 115.44 462.89 115.89 461.14 C117.09 456.7 118.58 452.54 120.36 448.3 C121.53 445.36 122.56 442.39 123.58 439.39 C127.9 426.73 133.52 415.11 139.96 403.38 C141.74 399.97 143.13 396.51 144.49 392.92 C146.88 387.02 149.96 381.41 152.87 375.76 C154.93 371.71 156.83 367.7 158.45 363.45 C159.88 359.75 161.57 356.35 163.51 352.89 C165.88 348.67 167.75 344.48 169.46 339.97 C170.62 337.14 171.98 334.48 173.39 331.77 C176.79 325.11 179.3 318.22 181.84 311.21 C182.76 308.72 183.79 306.28 184.83 303.83 C186.4 299.98 187.08 296.51 187.51 292.39 C187.84 292.06 188.17 291.73 188.51 291.39 C190.76 283.07 191.89 274.95 192.3 266.35 C192.51 263.39 192.51 263.39 193.02 261.6 C193.67 258.72 193.64 256.01 193.65 253.05 C193.65 251.21 193.65 251.21 193.65 249.33 C193.65 248.05 193.64 246.77 193.64 245.45 C193.64 244.18 193.65 242.9 193.65 241.59 C193.65 240.36 193.65 239.13 193.65 237.86 C193.65 236.74 193.65 235.62 193.64 234.47 C193.53 231.65 193.12 229.14 192.51 226.39 C192.39 224.27 192.29 222.14 192.2 220.02 C191.68 212.06 189.74 205.01 187.51 197.39 C187.19 196.06 186.88 194.73 186.58 193.39 C184 183.01 180.21 172.98 175.51 163.39 C174.97 162.25 174.42 161.1 173.85 159.92 C170.93 153.87 167.88 148.04 163.97 142.55 C162.51 140.39 162.51 140.39 160.76 137.2 C158.17 132.61 154.95 128.53 151.7 124.39 C151.11 123.62 150.52 122.85 149.91 122.06 C146.08 117.15 142.01 112.7 137.51 108.39 C132.51 103.39 132.51 103.39 131.01 101.82 C126.91 97.61 122.62 93.94 117.89 90.45 C117.2 89.94 116.51 89.43 115.8 88.9 C105.45 80.45 105.45 80.45 93.51 76.39 C93.51 75.73 93.51 75.07 93.51 74.39 C85.87 70.75 78.23 67.41 70.29 64.47 C67.51 63.39 67.51 63.39 65.65 62.38 C62.37 60.86 58.89 60.15 55.39 59.33 C47.75 57.51 47.75 57.51 45.51 56.39 C37.42 54.71 29.25 53.89 21.01 53.27 C19.98 53.18 18.94 53.09 17.87 53 C-0.29 51.58 -20.02 51.71 -37.49 57.39 Z " fill="white" transform="translate(850.4853515625,451.60888671875)"/>
<path d="M0 0 C2.93 0 5.86 -0.02 8.79 -0.05 C20.72 -0.08 31.94 0.96 43.63 3.32 C45.48 3.65 47.34 3.98 49.19 4.32 C53.82 5.28 58.19 6.73 62.63 8.32 C63.66 8.65 64.69 8.99 65.74 9.34 C79.16 13.87 93 20.17 104.63 28.32 C104.63 28.98 104.63 29.64 104.63 30.32 C105.62 30.32 106.61 30.32 107.63 30.32 C107.63 30.98 107.63 31.64 107.63 32.32 C108.95 32.65 110.27 32.98 111.63 33.32 C111.63 33.98 111.63 34.64 111.63 35.32 C112.25 35.63 112.87 35.93 113.51 36.25 C114.88 36.94 116.26 37.63 117.63 38.32 C117.63 38.98 117.63 39.64 117.63 40.32 C118.29 40.32 118.95 40.32 119.63 40.32 C119.63 40.98 119.63 41.64 119.63 42.32 C120.21 42.56 120.79 42.81 121.38 43.07 C123.96 44.5 125.69 46.1 127.63 48.32 C127.63 48.98 127.63 49.64 127.63 50.32 C128.29 50.32 128.95 50.32 129.63 50.32 C131.36 52.37 132.97 54.42 134.57 56.57 C135.01 57.15 135.45 57.74 135.91 58.34 C136.77 59.48 137.63 60.63 138.48 61.78 C139.44 63.06 140.44 64.31 141.45 65.55 C142.63 67.32 142.63 67.32 142.63 70.32 C143.29 70.32 143.95 70.32 144.63 70.32 C148.25 76.46 151.14 82.64 153.63 89.32 C154.16 90.72 154.16 90.72 154.7 92.15 C164.99 119.91 164.97 149.98 156.63 178.32 C156.26 179.65 155.88 180.98 155.51 182.32 C152.01 194.62 147.89 206.63 142.87 218.4 C142.05 220.32 141.26 222.26 140.49 224.2 C137.65 231.3 134.26 237.94 130.61 244.64 C128.82 247.93 127.15 251.26 125.51 254.63 C122.82 260.04 119.81 265.18 116.63 270.32 C115.2 272.64 113.77 274.96 112.34 277.28 C111.34 278.91 110.33 280.54 109.33 282.16 C108.86 282.91 108.4 283.66 107.92 284.44 C107.51 285.11 107.09 285.79 106.66 286.48 C105.48 288.44 105.48 288.44 104.63 291.32 C103.97 291.32 103.31 291.32 102.63 291.32 C102.53 292 102.42 292.68 102.32 293.38 C101.65 296.24 100.64 298.76 99.46 301.44 C95.07 311.43 93.34 321.46 92.01 332.25 C91.87 333.27 91.74 334.29 91.6 335.34 C90.26 346.07 90.63 356.04 91.94 366.75 C92.06 367.81 92.18 368.86 92.3 369.95 C93.14 376.97 94.62 383.55 96.63 390.32 C96.97 391.59 97.31 392.86 97.66 394.17 C99.22 399.89 100.8 405.23 103.66 410.43 C104.71 412.47 105.43 414.52 106.19 416.69 C108.54 422.75 112.05 428.07 115.49 433.56 C118.79 438.86 121.68 444.17 124.38 449.8 C125.48 452.02 126.66 454.06 128.01 456.13 C136.89 469.89 144.42 485.39 150.53 500.57 C151.35 502.61 152.22 504.64 153.11 506.65 C154.71 510.52 155.97 514.36 157.13 518.38 C157.35 519.12 157.56 519.86 157.78 520.62 C159.73 527.46 161.33 534.33 162.63 541.32 C162.84 542.34 163.04 543.36 163.26 544.42 C167.46 568.41 164.89 593.51 156.63 616.32 C156.27 617.34 155.92 618.36 155.55 619.41 C153.16 625.7 149.97 631.35 146.44 637.07 C146 637.78 145.56 638.5 145.11 639.24 C144.01 640.97 142.83 642.65 141.63 644.32 C140.97 644.32 140.31 644.32 139.63 644.32 C139.36 645.06 139.09 645.8 138.82 646.57 C137.68 649.21 136.54 651.17 134.63 653.32 C133.97 653.32 133.31 653.32 132.63 653.32 C132.3 654.31 131.97 655.3 131.63 656.32 C130.97 656.32 130.31 656.32 129.63 656.32 C129.23 657.27 129.23 657.27 128.82 658.25 C127.63 660.32 127.63 660.32 124.63 661.32 C124.3 661.98 123.97 662.64 123.63 663.32 C123.3 663.98 122.97 664.64 122.63 665.32 C121.64 665.65 120.65 665.98 119.63 666.32 C119.63 666.98 119.63 667.64 119.63 668.32 C117.95 669.82 117.95 669.82 115.76 671.44 C115.04 671.98 114.32 672.52 113.58 673.07 C111.63 674.32 111.63 674.32 109.63 674.32 C109.63 674.98 109.63 675.64 109.63 676.32 C107.18 678.01 104.74 679.59 102.19 681.13 C101.46 681.58 100.72 682.03 99.96 682.49 C97.86 683.78 95.75 685.05 93.63 686.32 C92.74 686.85 91.84 687.39 90.92 687.94 C86.46 690.51 81.92 692.5 77.12 694.34 C74.65 695.31 72.24 696.35 69.82 697.44 C65.17 699.52 60.63 701.4 55.71 702.75 C54.15 703.17 52.6 703.62 51.05 704.07 C45.99 705.53 41.18 706.62 35.93 707.05 C33.73 707.3 31.71 707.75 29.56 708.3 C24.17 709.53 18.84 709.81 13.32 710 C12.27 710.04 11.23 710.08 10.15 710.12 C-8.35 710.69 -26.88 709.94 -44.37 703.32 C-45.21 703.03 -46.06 702.74 -46.93 702.45 C-57.31 698.88 -66.86 693.74 -76.37 688.32 C-76.37 687.66 -76.37 687 -76.37 686.32 C-77.36 686.32 -78.35 686.32 -79.37 686.32 C-79.37 685.66 -79.37 685 -79.37 684.32 C-80.69 683.99 -82.01 683.66 -83.37 683.32 C-83.37 682.66 -83.37 682 -83.37 681.32 C-83.99 681.01 -84.61 680.7 -85.24 680.38 C-86.62 679.69 -87.99 679 -89.37 678.32 C-89.37 677.66 -89.37 677 -89.37 676.32 C-90.18 675.99 -90.18 675.99 -91.01 675.66 C-94.19 673.85 -96.58 671.4 -99.12 668.82 C-99.63 668.32 -100.13 667.82 -100.65 667.3 C-104.37 663.57 -104.37 663.57 -104.37 661.32 C-105.03 661.32 -105.69 661.32 -106.37 661.32 C-107.97 659.54 -109.43 657.78 -110.87 655.88 C-111.31 655.3 -111.74 654.73 -112.2 654.14 C-119.68 644.08 -126.21 633.17 -130.37 621.32 C-131.07 619.54 -131.78 617.77 -132.49 616 C-133.12 614.44 -133.74 612.88 -134.37 611.32 C-134.72 610.47 -135.07 609.62 -135.43 608.75 C-136.46 606.08 -137.14 603.38 -137.81 600.59 C-138.41 598.14 -139.11 595.74 -139.81 593.32 C-142.26 584.38 -144.04 575.16 -144.99 565.94 C-145.14 562.49 -145.14 562.49 -146.37 560.32 C-146.55 558.34 -146.69 556.36 -146.81 554.38 C-147.17 549.17 -147.88 544.2 -148.9 539.09 C-149.59 535.03 -149.86 530.96 -150.12 526.85 C-150.29 524.19 -150.29 524.19 -151.37 521.32 C-151.52 519.4 -151.64 517.48 -151.74 515.57 C-152.91 499.27 -157.81 483.72 -162.75 468.24 C-163.32 466.46 -163.88 464.69 -164.44 462.91 C-166.08 457.8 -167.86 453.03 -170.38 448.3 C-171.49 446.08 -172.36 443.82 -173.24 441.5 C-174.7 437.76 -176.4 434.32 -178.37 430.82 C-180.24 427.47 -181.89 424.21 -183.24 420.63 C-185.26 415.32 -187.81 410.33 -190.38 405.27 C-192.72 400.64 -194.91 395.97 -197.02 391.23 C-198.74 387.52 -200.58 383.89 -202.43 380.25 C-205.03 375.14 -207.34 370.04 -209.38 364.67 C-210.53 361.93 -211.92 359.41 -213.37 356.82 C-215.69 352.66 -217.62 348.54 -219.31 344.1 C-220.35 341.37 -221.46 338.68 -222.58 335.98 C-225.43 329.06 -227.69 322.19 -229.61 314.95 C-230.11 312.41 -230.11 312.41 -231.37 311.32 C-231.85 309.23 -232.32 307.14 -232.76 305.04 C-233.41 302.15 -234.17 299.3 -234.93 296.44 C-236.13 291.7 -236.78 287.15 -237.1 282.27 C-237.36 279.4 -237.85 276.65 -238.38 273.82 C-239.74 265.11 -239.67 256.42 -239.63 247.62 C-239.62 244.76 -239.63 241.89 -239.64 239.02 C-239.65 230.45 -239.59 222.14 -237.83 213.71 C-237.33 211.13 -237.14 208.62 -236.99 206 C-236.47 199.56 -234.68 193.54 -232.92 187.34 C-232.35 185.25 -231.83 183.15 -231.32 181.05 C-231.15 180.34 -230.98 179.63 -230.81 178.9 C-230.33 176.93 -229.86 174.95 -229.4 172.97 C-228.35 169.24 -226.93 165.86 -225.37 162.32 C-224.76 160.49 -224.18 158.66 -223.62 156.82 C-220.03 145.9 -214.86 135.83 -208.95 125.99 C-206.9 122.51 -205.12 118.95 -203.37 115.32 C-202.71 115.32 -202.05 115.32 -201.37 115.32 C-201.27 114.77 -201.18 114.23 -201.08 113.68 C-200.16 110.62 -198.64 108.26 -196.93 105.57 C-196.31 104.58 -195.7 103.6 -195.06 102.58 C-194.5 101.83 -193.94 101.09 -193.37 100.32 C-192.71 100.32 -192.05 100.32 -191.37 100.32 C-191.12 99.6 -190.87 98.88 -190.62 98.15 C-189.23 95 -187.52 92.68 -185.37 90 C-184.32 88.68 -184.32 88.68 -183.24 87.33 C-182.63 86.66 -182.01 86 -181.37 85.32 C-180.71 85.32 -180.05 85.32 -179.37 85.32 C-179.1 84.73 -178.83 84.14 -178.55 83.54 C-173.3 73.68 -162.25 63.92 -153.37 57.32 C-152.71 57.32 -152.05 57.32 -151.37 57.32 C-151.37 56.66 -151.37 56 -151.37 55.32 C-149.34 53.58 -147.31 51.97 -145.18 50.38 C-144.6 49.94 -144.03 49.49 -143.43 49.04 C-134.57 42.32 -134.57 42.32 -131.37 42.32 C-131.37 41.66 -131.37 41 -131.37 40.32 C-129.98 39.2 -129.98 39.2 -128.04 38 C-127 37.35 -127 37.35 -125.93 36.68 C-125.18 36.23 -124.44 35.78 -123.68 35.32 C-122.96 34.86 -122.24 34.41 -121.5 33.95 C-117.86 31.7 -114.37 29.85 -110.37 28.32 C-107.98 27.04 -105.61 25.75 -103.24 24.44 C-97.91 21.54 -92.66 19.11 -86.89 17.17 C-84.45 16.34 -82.11 15.39 -79.74 14.38 C-73.12 11.69 -66.23 9.82 -59.36 7.88 C-57.45 7.34 -55.54 6.77 -53.63 6.2 C-50.29 5.29 -47.21 4.92 -43.78 4.66 C-41.2 4.35 -41.2 4.35 -38.13 3.36 C-25.68 -0.1 -12.82 -0.03 0 0 Z M-14.87 53.19 C-15.91 53.27 -16.94 53.35 -18.01 53.43 C-31.5 54.49 -31.5 54.49 -44.37 58.32 C-46.45 58.81 -48.53 59.26 -50.62 59.69 C-55.45 60.77 -59.68 62.14 -64.13 64.28 C-66.64 65.44 -69.19 66.35 -71.81 67.25 C-77.23 69.18 -82.29 71.63 -87.37 74.32 C-87.37 74.98 -87.37 75.64 -87.37 76.32 C-87.89 76.4 -88.41 76.49 -88.95 76.58 C-101.55 80.4 -112.56 90.97 -122.37 99.32 C-123.21 100.01 -124.04 100.71 -124.91 101.42 C-129.55 105.34 -133.47 109.68 -137.37 114.32 C-137.95 114.97 -138.54 115.63 -139.14 116.31 C-139.69 116.93 -140.24 117.55 -140.81 118.19 C-141.3 118.74 -141.79 119.3 -142.3 119.87 C-143.57 121.28 -143.57 121.28 -143.37 123.32 C-144.03 123.32 -144.69 123.32 -145.37 123.32 C-147.08 125.47 -148.68 127.62 -150.24 129.88 C-150.68 130.49 -151.11 131.1 -151.56 131.72 C-154.43 135.8 -156.94 139.97 -159.37 144.32 C-160.34 145.92 -161.32 147.53 -162.31 149.13 C-167.15 157.2 -171.07 165.51 -174.37 174.32 C-174.6 174.91 -174.83 175.5 -175.06 176.11 C-178.91 186.12 -181.59 196.03 -183.61 206.56 C-184.37 210.32 -184.37 210.32 -185.37 212.32 C-185.58 214.58 -185.74 216.86 -185.87 219.13 C-186.27 225.85 -186.27 225.85 -186.88 228.61 C-187.46 231.79 -187.5 234.78 -187.5 238.01 C-187.5 239.28 -187.5 240.56 -187.51 241.87 C-187.5 242.53 -187.5 243.19 -187.5 243.86 C-187.49 245.88 -187.5 247.89 -187.51 249.9 C-187.5 251.17 -187.5 252.45 -187.5 253.76 C-187.5 254.92 -187.5 256.08 -187.5 257.28 C-187.39 259.84 -187.07 261.88 -186.37 264.32 C-186.27 266.11 -186.19 267.9 -186.12 269.69 C-185.66 276.1 -184.46 282.23 -183.06 288.5 C-182.86 289.42 -182.65 290.33 -182.45 291.27 C-181.17 296.77 -179.47 301.88 -177.29 307.09 C-176.17 309.79 -175.27 312.54 -174.37 315.32 C-171.46 322.96 -167.96 330.24 -164.25 337.52 C-162.02 341.92 -160.11 346.35 -158.36 350.96 C-157.21 353.7 -155.82 356.23 -154.37 358.82 C-152.49 362.16 -150.85 365.42 -149.49 369 C-147.5 374.24 -145.01 379.18 -142.45 384.17 C-140.05 388.87 -137.85 393.64 -135.68 398.45 C-133.96 402.22 -132.14 405.93 -130.32 409.65 C-125.95 418.62 -121.9 427.56 -118.56 436.96 C-117.56 439.79 -116.47 442.55 -115.31 445.32 C-113.02 450.95 -111.29 456.77 -109.52 462.58 C-108.84 464.78 -108.13 466.97 -107.35 469.13 C-105.95 473.69 -105.15 478.32 -104.31 483 C-103.96 484.88 -103.62 486.76 -103.27 488.64 C-103.12 489.47 -102.97 490.29 -102.82 491.14 C-102.38 493.48 -102.38 493.48 -101.37 496.32 C-101.19 498.17 -101.05 500.02 -100.93 501.88 C-100.64 505.7 -100.24 509.38 -99.43 513.13 C-97.48 522.21 -96.44 531.43 -95.87 540.69 C-95.57 545.36 -94.99 549.68 -93.84 554.21 C-93.15 557.27 -92.88 560.35 -92.61 563.47 C-92.46 565.41 -92.46 565.41 -91.37 567.32 C-91.25 568.62 -91.12 569.91 -90.99 571.25 C-90.13 579.51 -87.59 587.21 -84.4 594.85 C-83.36 597.34 -82.4 599.86 -81.43 602.38 C-79.77 606.55 -77.77 610.42 -75.52 614.31 C-74.39 616.28 -73.37 618.28 -72.37 620.32 C-71.71 620.32 -71.05 620.32 -70.37 620.32 C-70.09 620.9 -69.81 621.48 -69.52 622.09 C-65.24 630.38 -58.65 635.68 -51.37 641.32 C-50.49 642.06 -49.62 642.81 -48.72 643.58 C-46.45 645.61 -46.45 645.61 -43.37 645.32 C-43.37 645.98 -43.37 646.64 -43.37 647.32 C-34.45 651.53 -26.14 655.37 -16.22 656.1 C-14.37 656.32 -14.37 656.32 -12.37 657.32 C-7.65 657.59 -2.91 657.56 1.82 657.57 C2.5 657.57 3.19 657.57 3.89 657.57 C13.85 657.57 22.99 656.98 32.63 654.32 C34.23 654 35.84 653.68 37.44 653.38 C42.41 652.23 46.97 650.37 51.63 648.32 C52.25 648.05 52.86 647.78 53.49 647.51 C61.78 643.9 69.65 639.94 77.19 634.94 C77.84 634.51 78.49 634.08 79.16 633.64 C80.69 632.59 82.17 631.46 83.63 630.32 C83.63 629.66 83.63 629 83.63 628.32 C84.62 627.99 85.61 627.66 86.63 627.32 C86.63 626.66 86.63 626 86.63 625.32 C87.23 625.05 87.83 624.78 88.44 624.5 C90.63 623.32 92.04 622.22 93.63 620.32 C93.63 619.66 93.63 619 93.63 618.32 C94.29 618.32 94.95 618.32 95.63 618.32 C108.74 603.36 111.84 587.04 111.76 567.82 C111.76 566.94 111.76 566.07 111.77 565.17 C111.76 557.38 111.52 549.52 109.32 542 C109.05 541.09 108.79 540.18 108.51 539.25 C108.22 538.28 107.93 537.31 107.63 536.32 C107.32 535.23 107.01 534.13 106.69 533.01 C105.05 527.43 103.31 522.19 100.56 517.06 C99.4 514.88 98.49 512.62 97.54 510.35 C95.42 505.59 92.98 500.97 90.63 496.32 C89.67 494.4 88.71 492.48 87.76 490.57 C87.14 489.34 87.14 489.34 86.51 488.08 C86.22 487.5 85.93 486.92 85.63 486.32 C84.97 486.32 84.31 486.32 83.63 486.32 C83.52 485.58 83.41 484.85 83.3 484.1 C82.6 481.17 81.61 479.29 80.01 476.75 C79.47 475.89 78.94 475.04 78.39 474.15 C77.81 473.22 77.23 472.28 76.63 471.32 C75.35 469.17 74.08 467.03 72.82 464.88 C72.23 463.89 71.65 462.9 71.05 461.88 C69.63 459.32 69.63 459.32 68.63 456.32 C67.97 456.32 67.31 456.32 66.63 456.32 C66.4 455.51 66.18 454.71 65.94 453.88 C64.88 450.99 63.78 448.7 62.26 446.07 C59.98 442.09 58.24 438.07 56.6 433.8 C55.64 431.34 54.59 428.92 53.51 426.5 C51.12 421.18 49.17 415.94 47.63 410.32 C47.4 409.52 47.18 408.73 46.94 407.91 C44.84 400.46 43.06 392.93 41.63 385.32 C41.37 384.06 41.37 384.06 41.11 382.77 C39.27 372.75 39.29 362.78 39.32 352.62 C39.32 349.59 39.3 346.56 39.27 343.53 C39.23 331.78 40.08 320.78 42.63 309.32 C42.81 308.44 43 307.57 43.19 306.66 C44.76 299.45 46.71 292.44 49.65 285.66 C50.7 283.16 51.53 280.64 52.38 278.07 C55.82 268.5 61.48 259.87 67.2 251.52 C69.39 248.14 71.25 244.59 73.14 241.04 C74.49 238.57 75.94 236.2 77.44 233.82 C81.76 226.73 85.07 219.1 88.56 211.58 C89.6 209.37 90.68 207.19 91.78 205.01 C95.63 197.37 98.36 189.36 100.97 181.23 C102.53 176.42 102.53 176.42 103.63 175.32 C103.78 174.28 103.92 173.25 104.07 172.19 C104.78 167.31 106.14 162.8 107.69 158.13 C109.92 149.07 109.89 139.6 109.63 130.32 C109.61 129.43 109.6 128.55 109.58 127.64 C108.57 108.05 97.64 91.39 83.51 78.44 C76.03 71.98 68.59 67.55 59.63 63.32 C58.82 62.93 58.01 62.55 57.17 62.15 C49.12 58.46 41.15 55.97 32.38 54.69 C31.55 54.57 30.73 54.44 29.88 54.31 C14.88 52.12 0.22 51.94 -14.87 53.19 Z " fill="white" transform="translate(423.368896484375,451.684326171875)"/>
<path d="M0 0 C2.05 0.78 4.11 1.5 6.18 2.21 C6.88 2.45 7.59 2.7 8.32 2.95 C9.74 3.44 11.17 3.92 12.61 4.41 C17.62 6.14 22.25 8.31 26.96 10.75 C28 11.24 29.03 11.74 30.1 12.25 C44.68 19.28 58.67 27.47 71.3 37.62 C73.57 39.44 75.87 41.11 78.27 42.75 C79.16 43.41 80.05 44.07 80.96 44.75 C80.96 45.41 80.96 46.07 80.96 46.75 C81.83 47.15 81.83 47.15 82.71 47.56 C85.02 48.77 86.98 50.05 88.96 51.75 C88.96 52.41 88.96 53.07 88.96 53.75 C89.51 53.97 90.06 54.19 90.62 54.42 C93.68 56.16 95.96 58.49 98.4 61 C98.88 61.49 99.37 61.98 99.87 62.49 C108.96 71.8 108.96 71.8 108.96 74.75 C109.62 74.75 110.28 74.75 110.96 74.75 C112.59 76.65 114.1 78.55 115.59 80.56 C116.25 81.43 116.25 81.43 116.92 82.33 C117.83 83.54 118.73 84.75 119.63 85.96 C120.88 87.63 122.14 89.29 123.4 90.95 C124.12 91.92 124.84 92.88 125.59 93.87 C126.24 94.74 126.89 95.61 127.56 96.5 C128.96 98.75 128.96 98.75 128.96 101.75 C129.62 101.75 130.28 101.75 130.96 101.75 C133 104.65 133.96 106.15 133.96 109.75 C134.62 109.75 135.28 109.75 135.96 109.75 C136.48 110.78 137 111.82 137.54 112.89 C137.87 113.56 138.21 114.23 138.55 114.93 C139.29 116.4 140.03 117.88 140.76 119.36 C142.28 122.4 143.8 125.44 145.39 128.44 C149.17 135.55 151.65 143.07 154.24 150.67 C154.97 152.78 155.75 154.87 156.54 156.95 C159.13 163.81 160.98 170.47 161.96 177.75 C162.42 179.14 162.42 179.14 162.9 180.56 C165.82 189.31 166.35 197.94 166.4 207.12 C166.43 208.26 166.46 209.4 166.5 210.58 C166.57 222.09 162.58 231.44 155.96 240.75 C155.3 240.75 154.64 240.75 153.96 240.75 C153.63 241.74 153.3 242.73 152.96 243.75 C152.3 243.75 151.64 243.75 150.96 243.75 C150.96 244.41 150.96 245.07 150.96 245.75 C150.3 245.75 149.64 245.75 148.96 245.75 C148.96 246.41 148.96 247.07 148.96 247.75 C137.74 257.63 124.29 259.49 110 259.38 C108.31 259.39 106.63 259.39 104.94 259.4 C100.34 259.42 95.75 259.41 91.15 259.4 C86.18 259.39 81.21 259.41 76.24 259.42 C66.51 259.44 56.79 259.44 47.06 259.42 C39.16 259.41 31.25 259.41 23.34 259.41 C21.65 259.42 21.65 259.42 19.93 259.42 C17.64 259.42 15.35 259.42 13.06 259.42 C-8.39 259.44 -29.84 259.42 -51.29 259.39 C-69.68 259.37 -88.07 259.37 -106.46 259.4 C-127.83 259.42 -149.2 259.43 -170.58 259.42 C-172.86 259.42 -175.14 259.42 -177.42 259.41 C-178.54 259.41 -179.67 259.41 -180.82 259.41 C-188.72 259.41 -196.61 259.42 -204.5 259.43 C-214.13 259.44 -223.75 259.44 -233.37 259.41 C-238.28 259.4 -243.19 259.39 -248.1 259.41 C-252.59 259.42 -257.09 259.42 -261.59 259.39 C-263.21 259.38 -264.83 259.39 -266.45 259.4 C-279.87 259.49 -292.62 256.93 -303.04 247.75 C-303.04 247.09 -303.04 246.43 -303.04 245.75 C-303.7 245.75 -304.36 245.75 -305.04 245.75 C-305.04 245.09 -305.04 244.43 -305.04 243.75 C-306.03 243.42 -307.02 243.09 -308.04 242.75 C-308.04 242.09 -308.04 241.43 -308.04 240.75 C-308.7 240.75 -309.36 240.75 -310.04 240.75 C-311.34 238.54 -312.63 236.33 -313.91 234.12 C-314.28 233.5 -314.64 232.89 -315.02 232.25 C-315.37 231.64 -315.73 231.02 -316.09 230.39 C-316.42 229.84 -316.74 229.28 -317.08 228.71 C-320.47 221.78 -320.39 215.37 -320.35 207.81 C-320.35 206.6 -320.35 205.39 -320.34 204.14 C-320.24 195.29 -319.33 187.31 -317.04 178.75 C-316.7 177.12 -316.37 175.5 -316.04 173.87 C-315.22 170.29 -314.15 166.85 -312.95 163.38 C-312.03 160.72 -311.16 158.05 -310.3 155.38 C-306.24 142.94 -300.97 131.34 -295.04 119.71 C-293.35 116.4 -291.7 113.07 -290.04 109.75 C-289.38 109.75 -288.72 109.75 -288.04 109.75 C-287.94 109.2 -287.85 108.65 -287.75 108.09 C-286.85 105.11 -285.37 102.9 -283.66 100.31 C-281.85 97.53 -280.06 94.79 -278.44 91.9 C-277.98 91.19 -277.51 90.48 -277.04 89.75 C-276.38 89.75 -275.72 89.75 -275.04 89.75 C-274.79 89.03 -274.54 88.31 -274.29 87.58 C-272.9 84.43 -271.19 82.11 -269.04 79.43 C-267.99 78.11 -267.99 78.11 -266.91 76.76 C-266.3 76.09 -265.68 75.43 -265.04 74.75 C-264.38 74.75 -263.72 74.75 -263.04 74.75 C-262.82 74.21 -262.6 73.67 -262.37 73.12 C-260.59 69.94 -258.2 67.44 -255.73 64.81 C-255.25 64.3 -254.78 63.78 -254.29 63.26 C-252.88 61.74 -251.46 60.24 -250.04 58.75 C-249.14 57.8 -248.24 56.85 -247.31 55.87 C-245.04 53.75 -245.04 53.75 -243.04 53.75 C-243.04 53.09 -243.04 52.43 -243.04 51.75 C-237.56 46.75 -237.56 46.75 -235.04 46.75 C-235.04 46.09 -235.04 45.43 -235.04 44.75 C-233.22 43.15 -231.41 41.69 -229.48 40.25 C-228.89 39.8 -228.31 39.36 -227.71 38.91 C-210.61 26.12 -191.91 13.76 -171.68 6.71 C-169.31 5.84 -167.07 4.88 -164.79 3.81 C-151.78 -2.06 -137.91 -5.19 -124.04 -8.25 C-122.53 -8.59 -122.53 -8.59 -120.99 -8.94 C-82.3 -16.83 -36.96 -14.26 0 0 Z M-128.04 46.75 C-129.24 47.09 -130.43 47.44 -131.67 47.8 C-145.29 51.83 -158.49 57.05 -171.04 63.75 C-171.04 64.41 -171.04 65.07 -171.04 65.75 C-171.59 65.84 -172.14 65.94 -172.71 66.04 C-175.62 66.92 -177.75 68.33 -180.29 70 C-183.74 72.25 -187.19 74.45 -190.73 76.56 C-191.82 77.28 -192.91 78 -194.04 78.75 C-194.04 79.41 -194.04 80.07 -194.04 80.75 C-194.61 81.01 -195.18 81.28 -195.77 81.56 C-198.12 82.79 -200.16 84.17 -202.29 85.75 C-203.35 86.52 -203.35 86.52 -204.43 87.31 C-204.96 87.78 -205.49 88.26 -206.04 88.75 C-206.04 89.41 -206.04 90.07 -206.04 90.75 C-206.6 90.98 -207.16 91.22 -207.74 91.46 C-210.56 93.04 -212.52 94.96 -214.79 97.25 C-215.59 98.04 -216.39 98.83 -217.21 99.65 C-219.26 101.53 -219.26 101.53 -219.04 103.75 C-219.7 103.75 -220.36 103.75 -221.04 103.75 C-223.08 105.92 -223.08 105.92 -225.16 108.62 C-225.89 109.53 -226.61 110.43 -227.36 111.36 C-229.23 113.53 -229.23 113.53 -229.04 115.75 C-229.7 115.75 -230.36 115.75 -231.04 115.75 C-236.09 121.62 -240.02 128.22 -243.61 135.06 C-245.01 137.69 -246.53 140.21 -248.1 142.75 C-253 150.88 -256.37 159.18 -258.95 168.31 C-259.84 171.13 -260.87 173.72 -262.02 176.43 C-264.25 181.91 -265.29 187.36 -266.23 193.18 C-266.55 195.12 -266.88 197.06 -267.21 198.99 C-267.34 199.83 -267.48 200.68 -267.62 201.54 C-268.04 203.75 -268.04 203.75 -269.04 206.75 C-246.21 206.93 -223.39 207.07 -200.56 207.16 C-189.96 207.2 -179.36 207.26 -168.76 207.35 C-159.52 207.43 -150.29 207.48 -141.05 207.5 C-136.16 207.51 -131.27 207.53 -126.37 207.59 C-121.77 207.65 -117.16 207.66 -112.56 207.65 C-110.87 207.65 -109.18 207.67 -107.49 207.7 C-98.58 208.13 -98.58 208.13 -90.53 205 C-88.77 203 -87.41 201.03 -86.04 198.75 C-84.39 197.06 -82.73 195.39 -81.04 193.75 C-80.21 192.92 -79.39 192.1 -78.54 191.25 C-44.79 157.5 -44.79 157.5 -11.04 123.75 C-10.17 122.86 -9.31 121.97 -8.41 121.06 C-6.04 118.75 -6.04 118.75 -3.04 116.75 C-3.04 116.09 -3.04 115.43 -3.04 114.75 C-2.45 114.46 -1.86 114.17 -1.25 113.88 C0.91 112.82 0.91 112.82 2.64 111.68 C9.42 107.6 16.97 107.54 24.55 109.37 C31.68 112.1 35.83 117.55 39.96 123.75 C41.41 131.55 42.11 139.8 37.68 146.7 C33.12 153.33 27.27 158.78 21.56 164.4 C20.36 165.6 19.16 166.79 17.96 167.99 C14.82 171.11 11.67 174.23 8.52 177.34 C3.45 182.34 -1.6 187.36 -6.65 192.38 C-8.42 194.13 -10.19 195.88 -11.96 197.63 C-13.03 198.69 -14.1 199.76 -15.18 200.82 C-15.67 201.31 -16.17 201.79 -16.68 202.29 C-17.82 203.43 -18.93 204.58 -20.04 205.75 C-20.04 206.08 -20.04 206.41 -20.04 206.75 C24.18 206.75 68.4 206.75 113.96 206.75 C112.48 193.81 112.48 193.81 109.59 181.37 C109.37 180.61 109.15 179.86 108.92 179.07 C107.26 173.48 105.31 168.09 102.96 162.75 C102.5 161.64 102.03 160.53 101.55 159.39 C96.94 148.42 91.87 138.24 85.27 128.31 C84.69 127.42 84.11 126.54 83.51 125.63 C81.34 122.33 79.15 119.03 76.96 115.75 C76.3 115.75 75.64 115.75 74.96 115.75 C74.56 114.89 74.56 114.89 74.15 114.01 C72.92 111.67 71.54 109.62 69.96 107.5 C69.45 106.79 68.93 106.08 68.4 105.35 C67.92 104.82 67.45 104.29 66.96 103.75 C66.3 103.75 65.64 103.75 64.96 103.75 C64.72 103.18 64.49 102.62 64.24 102.04 C62.67 99.23 60.75 97.27 58.46 95 C57.27 93.8 57.27 93.8 56.05 92.57 C54.17 90.53 54.17 90.53 51.96 90.75 C51.96 90.09 51.96 89.43 51.96 88.75 C50.05 86.96 50.05 86.96 47.65 85.18 C46.85 84.56 46.05 83.94 45.22 83.3 C42.96 81.59 42.96 81.59 39.96 80.75 C39.96 80.09 39.96 79.43 39.96 78.75 C36.74 76.43 36.74 76.43 32.96 75.75 C32.96 75.09 32.96 74.43 32.96 73.75 C30.88 72.27 28.83 70.93 26.65 69.62 C25.76 69.06 25.76 69.06 24.85 68.49 C21.18 66.25 21.18 66.25 16.96 65.75 C16.96 65.09 16.96 64.43 16.96 63.75 C2.84 57 -10.87 50.82 -26.04 46.75 C-26.94 46.48 -27.84 46.21 -28.77 45.94 C-43.84 41.53 -58.41 40.25 -74.04 40.35 C-77.04 40.37 -80.03 40.35 -83.02 40.34 C-98.62 40.32 -113.08 42.19 -128.04 46.75 Z " fill="white" transform="translate(717.0390625,127.25439453125)"/>
<path d="M0 0 C1.3 0.67 2.6 1.35 3.88 2.06 C4.54 2.39 5.19 2.72 5.88 3.06 C5.88 3.72 5.88 4.38 5.88 5.06 C6.87 5.39 7.86 5.72 8.88 6.06 C8.88 6.72 8.88 7.38 8.88 8.06 C9.54 8.06 10.19 8.06 10.88 8.06 C14.87 13.22 16.31 19.83 15.62 26.25 C13.91 34.95 10.61 41.8 3.12 46.94 C-3.45 50.61 -9.52 51.75 -16.88 49.94 C-25.52 47.15 -30.93 42.11 -35.44 34.38 C-38.12 28.64 -38.18 22.56 -36.36 16.54 C-34.56 12.23 -32.39 8.44 -29.12 5.06 C-28.46 5.06 -27.81 5.06 -27.12 5.06 C-27.12 4.4 -27.12 3.74 -27.12 3.06 C-18.82 -2.63 -9.37 -4.17 0 0 Z " fill="white" transform="translate(1119.125,1121.9375)"/>
<path d="M0 0 C6.12 5.3 9.14 10.65 10 18.69 C9.87 26.62 7.41 33.83 2 39.69 C1.34 39.69 0.68 39.69 0 39.69 C0 40.35 0 41.01 0 41.69 C-6.81 46.5 -13.83 47.65 -22 46.69 C-25.18 45.65 -28.07 44.29 -31 42.69 C-31.66 42.36 -32.32 42.03 -33 41.69 C-33 41.03 -33 40.37 -33 39.69 C-33.58 39.48 -34.15 39.28 -34.75 39.06 C-38.63 36.69 -40.37 33.04 -42.25 29 C-44.1 20.85 -43.64 14.24 -39.47 6.91 C-34.42 -0.72 -28.29 -3.6 -19.55 -5.98 C-12.56 -6.89 -5.53 -4.13 0 0 Z " fill="white" transform="translate(1125,113.3125)"/>
<path d="M0 0 C0.66 0.33 1.32 0.66 2 1 C2 1.66 2 2.32 2 3 C2.58 3.21 3.16 3.41 3.75 3.62 C7.65 6.01 9.4 9.68 11.25 13.75 C13.14 21.94 12.42 28.8 8 36 C2.57 43.52 -3.12 47.21 -12.29 48.84 C-19.83 49.29 -26.56 46.44 -32.28 41.66 C-37.6 36.53 -40.31 31.43 -41 24 C-40.88 17.57 -39.03 11.63 -36 6 C-35.34 6 -34.68 6 -34 6 C-33.67 5.01 -33.34 4.02 -33 3 C-32.34 3 -31.68 3 -31 3 C-31 2.34 -31 1.68 -31 1 C-21.09 -6 -10.35 -5.66 0 0 Z " fill="white" transform="translate(186,1124)"/>
<path d="M0 0 C5.69 5.64 9.08 11.19 9.44 19.38 C9.22 27 6.32 33.5 1 39 C0.34 39 -0.32 39 -1 39 C-1 39.66 -1 40.32 -1 41 C-7.81 45.81 -14.83 46.96 -23 46 C-26.18 44.96 -29.07 43.61 -32 42 C-32.66 41.67 -33.32 41.34 -34 41 C-34 40.34 -34 39.68 -34 39 C-34.99 38.67 -35.98 38.34 -37 38 C-37 37.34 -37 36.68 -37 36 C-37.66 36 -38.32 36 -39 36 C-42.99 30.84 -44.44 24.24 -43.75 17.81 C-42.03 9.09 -38.73 2.23 -31.19 -2.88 C-20.89 -8.6 -9.19 -7.88 0 0 Z " fill="white" transform="translate(189,114)"/>
<path d="M0 0 C2.96 1.49 5.65 3.34 8.41 5.18 C8.41 5.84 8.41 6.5 8.41 7.18 C9.07 7.18 9.73 7.18 10.41 7.18 C15.21 15.35 17.55 21.5 16.41 31.18 C14.2 38.42 9.83 44.12 3.41 48.18 C2.42 48.18 1.43 48.18 0.41 48.18 C0.41 48.84 0.41 49.5 0.41 50.18 C-2.76 50.32 -5.93 50.41 -9.09 50.49 C-9.98 50.53 -10.87 50.57 -11.78 50.62 C-18.13 50.73 -22.82 49.59 -27.59 45.18 C-27.59 44.52 -27.59 43.86 -27.59 43.18 C-28.25 43.18 -28.91 43.18 -29.59 43.18 C-34.35 35.19 -37.14 28.55 -35.59 19.18 C-34.18 14.73 -32.17 11.05 -29.59 7.18 C-28.93 7.18 -28.27 7.18 -27.59 7.18 C-27.59 6.52 -27.59 5.86 -27.59 5.18 C-25.95 3.92 -25.95 3.92 -23.78 2.61 C-23.07 2.18 -22.37 1.74 -21.64 1.3 C-15.45 -2.1 -6.64 -2.11 0 0 Z " fill="white" transform="translate(649.59375,1229.82421875)"/>
</svg>
