<?xml version="1.0" standalone="no"?>
<!DOCTYPE svg PUBLIC "-//W3C//DTD SVG 20010904//EN"
 "http://www.w3.org/TR/2001/REC-SVG-20010904/DTD/svg10.dtd">
<svg version="1.0" xmlns="http://www.w3.org/2000/svg"
 width="512.000000pt" height="512.000000pt" viewBox="0 0 512.000000 512.000000"
 preserveAspectRatio="xMidYMid meet">

<g transform="translate(0.000000,512.000000) scale(0.100000,-0.100000)"
fill="white" stroke="none">
<path d="M3750 5034 c-60 -12 -151 -47 -197 -77 -28 -18 -187 -139 -354 -269
l-305 -237 -78 -176 c-168 -381 -258 -656 -317 -963 l-12 -63 -116 -79 c-190
-128 -375 -284 -557 -465 -209 -209 -274 -288 -596 -727 l-254 -347 -73 -513
c-40 -282 -75 -525 -78 -539 -4 -20 -14 -30 -43 -39 -65 -22 -130 -79 -169
-150 -32 -59 -36 -73 -39 -162 -4 -93 -3 -98 21 -122 l26 -26 349 0 c320 0
352 2 372 18 18 15 40 97 140 529 64 281 119 515 121 521 2 6 130 121 284 256
l280 245 285 -284 285 -285 80 -478 c70 -423 81 -479 101 -499 23 -23 25 -23
334 -23 l311 0 26 26 c24 24 25 29 21 122 -3 87 -7 104 -38 160 -37 70 -81
112 -152 144 l-48 22 0 290 0 291 -75 199 c-41 109 -75 201 -75 205 0 3 30 22
67 41 83 43 168 125 210 206 18 34 85 231 154 454 l121 394 -21 169 c-12 93
-20 171 -19 172 2 2 23 -1 48 -5 116 -23 253 -1 368 57 93 46 251 194 322 299
155 233 124 541 -74 740 -198 198 -507 229 -738 75 -88 -59 -220 -193 -275
-278 -38 -58 -72 -148 -90 -240 l-8 -42 -28 23 -29 23 104 242 103 241 300
263 c341 298 350 309 350 422 -1 101 -43 173 -130 217 -40 21 -141 32 -195 22z
m141 -183 c36 -36 37 -70 4 -109 -13 -16 -154 -143 -313 -281 l-288 -252 -74
-175 c-41 -96 -79 -174 -84 -174 -17 0 -259 30 -283 35 -21 5 -21 5 12 87 18
46 62 147 97 225 l63 142 303 236 c167 129 318 243 335 252 50 26 108 42 155
42 35 1 49 -5 73 -28z m184 -786 c83 -22 147 -60 206 -122 116 -122 149 -305
84 -458 -15 -35 -18 -37 -28 -20 -5 10 -13 72 -16 138 -6 111 -8 120 -31 139
-21 17 -32 19 -70 12 -25 -5 -79 -9 -120 -9 -107 0 -159 28 -284 154 l-98 99
44 26 c91 53 207 68 313 41z m-361 -292 c147 -142 248 -193 386 -193 l56 0 11
-79 c7 -43 23 -106 37 -140 l24 -60 -61 -57 c-175 -162 -423 -163 -592 -3
-166 157 -177 421 -26 592 24 26 45 47 48 47 3 0 56 -48 117 -107z m-781 -50
c154 -18 147 -13 116 -89 -22 -56 -8 -75 132 -180 111 -83 134 -105 151 -143
29 -69 104 -167 161 -213 l52 -40 27 -205 c22 -173 24 -212 14 -247 l-12 -41
-152 -3 -153 -3 6 35 c8 38 13 36 -106 51 l-47 6 -6 -43 c-3 -24 -8 -72 -12
-108 l-7 -65 -165 -175 c-91 -96 -177 -188 -192 -204 l-28 -28 -382 293 -382
294 83 79 c121 113 322 272 470 372 84 56 131 93 134 107 3 12 17 78 31 147
40 195 105 420 121 420 5 0 70 -7 146 -17z m-703 -1527 c179 -137 327 -250
329 -252 1 -1 -10 -20 -27 -41 -78 -100 -69 -216 23 -308 68 -68 95 -75 311
-75 l179 0 78 -207 77 -208 0 -272 0 -273 -113 0 -113 0 -48 298 -49 297 -341
343 c-308 308 -344 342 -374 342 -28 0 -75 -37 -354 -281 -178 -155 -331 -290
-342 -299 -13 -13 -39 -108 -92 -336 -40 -176 -76 -329 -79 -341 -5 -23 -8
-23 -165 -23 l-160 0 5 22 c2 13 34 234 70 493 37 259 70 479 74 490 9 22 438
608 504 690 23 28 79 94 125 148 l84 97 37 -27 c20 -15 182 -139 361 -277z
m1290 200 c0 -19 -154 -496 -171 -531 -30 -60 -95 -120 -167 -153 -55 -26 -63
-27 -274 -30 l-218 -3 -25 25 c-30 30 -33 74 -6 107 19 23 25 24 198 29 203 6
231 15 297 92 47 55 61 106 82 306 l17 162 134 0 c73 0 133 -2 133 -4z m-460
-283 c-10 -81 -44 -113 -116 -113 l-35 0 72 80 c40 44 76 80 79 80 4 0 4 -21
0 -47z m-1810 -1720 c0 -5 -7 -41 -17 -80 l-17 -73 -248 0 c-270 0 -260 -2
-237 57 14 37 47 73 84 89 33 14 435 21 435 7z m2116 -19 c39 -28 63 -63 70
-101 l7 -33 -206 0 c-230 0 -209 -8 -222 80 -4 25 -9 53 -12 63 -4 17 5 18
165 15 154 -3 173 -5 198 -24z"/>
</g>
</svg>
