<?xml version="1.0" standalone="no"?>
<!DOCTYPE svg PUBLIC "-//W3C//DTD SVG 20010904//EN"
 "http://www.w3.org/TR/2001/REC-SVG-20010904/DTD/svg10.dtd">
<svg version="1.0" xmlns="http://www.w3.org/2000/svg"
 width="512.000000pt" height="512.000000pt" viewBox="0 0 512.000000 512.000000"
 preserveAspectRatio="xMidYMid meet">

<g transform="translate(0.000000,512.000000) scale(0.100000,-0.100000)"
fill="white" stroke="none">
<path d="M1440 4119 c-743 -83 -1195 -486 -1370 -1219 -46 -193 -64 -370 -64
-640 -1 -240 17 -520 33 -520 4 0 12 15 19 33 28 78 123 156 213 176 44 10
771 43 1234 57 116 3 215 7 221 9 7 2 5 26 -7 77 -10 40 -23 106 -29 146 l-12
72 -140 0 -140 0 6 28 c13 51 64 147 133 251 l70 104 -48 235 c-26 129 -55
255 -64 280 -25 76 -20 159 16 230 49 99 129 152 239 159 50 4 78 0 121 -16
137 -52 184 -148 259 -525 18 -88 28 -117 53 -148 17 -21 33 -38 37 -38 5 0
170 192 198 231 11 17 7 26 -37 79 -28 33 -61 79 -75 103 -29 49 -63 153 -71
217 -5 39 -10 47 -35 57 l-30 11 0 87 c0 106 -23 267 -53 372 l-22 78 -115 11
c-133 14 -431 15 -540 3z"/>
<path d="M2658 4036 c-310 -103 -439 -473 -259 -742 39 -58 88 -111 95 -103 2
2 30 36 63 74 74 87 131 118 226 123 77 5 131 -11 196 -58 41 -30 101 -120
101 -152 0 -31 20 -20 81 42 185 189 193 473 20 672 -129 147 -340 205 -523
144z"/>
<path d="M1669 3510 c-93 -49 -146 -160 -119 -252 33 -115 85 -361 149 -710
40 -210 76 -407 82 -436 29 -148 189 -229 322 -163 42 20 103 89 463 520 229
273 422 508 430 524 22 42 33 113 23 158 -36 158 -230 228 -353 127 -21 -17
-145 -159 -276 -315 -131 -157 -242 -285 -246 -286 -4 -1 -22 75 -40 168 -106
546 -128 609 -234 663 -57 28 -149 30 -201 2z"/>
<path d="M3140 3092 c-25 -19 -49 -44 -54 -55 -4 -12 -15 -39 -23 -59 -9 -20
-118 -160 -243 -310 l-228 -273 30 -40 29 -40 -66 -3 -65 -3 -144 -172 c-118
-140 -141 -173 -128 -179 9 -4 370 -100 802 -214 431 -113 805 -214 830 -224
53 -22 898 -180 962 -180 101 0 197 60 246 154 37 71 38 179 2 250 -31 61 -98
121 -158 140 -40 13 -1703 326 -1732 326 -6 0 -11 165 -12 458 l-3 458 -45
-34z"/>
<path d="M1440 1938 c-1154 -46 -1146 -45 -1191 -65 -101 -45 -151 -122 -151
-230 0 -50 5 -72 29 -115 33 -60 102 -113 161 -124 20 -4 298 2 617 15 319 12
684 25 810 28 l230 5 877 -231 c482 -127 894 -231 916 -231 92 0 186 60 227
145 27 57 26 158 -2 210 -22 41 -59 81 -103 108 -14 9 -401 115 -859 236
l-833 219 -35 -21 c-43 -25 -164 -35 -217 -17 -20 6 -59 27 -87 46 -58 39 -26
37 -389 22z"/>
</g>
</svg>
