<?xml version="1.0" encoding="UTF-8" standalone="no"?>
<!DOCTYPE svg PUBLIC "-//W3C//DTD SVG 1.1//EN" "http://www.w3.org/Graphics/SVG/1.1/DTD/svg11.dtd">
<svg xmlns="http://www.w3.org/2000/svg" version="1.1" viewBox="0.00 0.00 512.00 512.00">
<path fill="white" d="
  M 38.62 0.00
  L 90.06 0.00
  Q 97.70 1.55 97.71 9.00
  Q 97.71 37.75 97.71 66.41
  Q 97.71 66.78 98.09 66.78
  Q 107.60 66.72 116.83 66.81
  Q 119.06 66.83 121.22 66.02
  Q 130.18 62.68 139.13 66.03
  Q 141.17 66.79 143.62 66.79
  Q 258.04 66.77 372.19 66.77
  Q 374.35 66.77 376.48 65.96
  Q 385.03 62.71 394.01 66.01
  Q 396.23 66.83 398.39 66.81
  Q 406.11 66.72 414.43 66.78
  A 0.36 0.36 0.0 0 0 414.80 66.42
  Q 414.79 36.86 414.85 9.50
  Q 414.87 1.46 422.57 0.00
  L 474.00 0.00
  Q 481.58 1.58 481.58 8.75
  Q 481.58 37.58 481.58 66.29
  A 0.46 0.45 0.7 0 0 482.03 66.74
  Q 488.87 66.83 496.40 66.73
  Q 499.16 66.69 501.39 67.50
  C 505.65 69.05 507.54 74.12 505.87 78.26
  C 504.19 82.45 500.25 83.62 495.89 83.53
  Q 489.20 83.39 481.81 83.53
  A 0.21 0.20 90.0 0 0 481.61 83.74
  Q 481.51 110.61 481.62 139.31
  C 481.63 143.41 481.07 147.05 477.01 149.19
  Q 475.00 150.26 471.77 150.26
  Q 446.26 150.27 423.81 150.20
  C 418.39 150.18 414.83 146.55 414.82 140.91
  Q 414.76 112.67 414.80 83.77
  A 0.29 0.29 0.0 0 0 414.51 83.48
  L 409.74 83.49
  Q 409.40 83.49 409.47 83.81
  Q 411.54 93.38 406.63 102.16
  Q 366.75 173.49 328.34 242.24
  C 326.40 245.70 324.29 248.75 321.26 251.31
  Q 320.73 251.76 320.66 252.46
  L 315.29 304.20
  A 0.42 0.42 0.0 0 0 315.55 304.64
  Q 336.02 313.32 357.10 322.10
  Q 360.09 323.35 361.78 324.92
  C 366.41 329.22 363.15 335.04 361.64 339.84
  A 0.35 0.35 0.0 0 0 361.83 340.27
  Q 382.93 349.98 402.94 358.57
  Q 411.39 362.20 415.24 365.77
  Q 424.98 374.80 422.54 389.52
  Q 414.90 435.77 406.18 487.70
  Q 404.56 497.39 397.44 503.26
  C 382.23 515.80 359.42 506.79 356.68 487.36
  Q 356.08 483.07 358.05 471.65
  Q 364.28 435.50 370.12 399.44
  Q 370.20 398.89 369.69 398.66
  L 345.52 387.92
  Q 344.93 387.65 344.67 388.25
  C 343.95 389.92 343.16 391.52 341.68 392.66
  C 338.14 395.41 334.85 394.63 330.73 392.76
  Q 294.52 376.40 260.11 360.81
  A 0.56 0.55 -56.5 0 0 259.48 360.94
  Q 235.65 387.46 209.05 417.03
  C 205.41 421.08 200.37 421.65 196.03 417.76
  Q 192.07 414.22 188.06 410.37
  A 0.35 0.35 0.0 0 0 187.56 410.38
  Q 142.95 457.44 98.40 504.40
  Q 92.07 511.07 81.67 512.00
  L 78.94 512.00
  C 65.84 510.81 56.06 500.98 55.44 487.74
  Q 54.97 477.43 63.04 468.92
  Q 105.63 423.98 150.64 376.57
  Q 151.05 376.13 150.66 375.68
  C 149.63 374.48 147.88 373.40 147.06 372.15
  Q 142.52 365.20 148.25 360.02
  Q 172.66 337.91 197.19 315.70
  A 0.81 0.79 66.9 0 0 197.44 315.05
  Q 194.36 282.13 191.48 250.90
  Q 191.25 248.41 189.56 246.21
  Q 188.06 244.24 187.35 242.97
  Q 147.95 172.49 108.55 102.00
  Q 103.67 93.26 105.84 83.68
  A 0.17 0.16 -84.2 0 0 105.68 83.48
  L 97.99 83.49
  Q 97.75 83.49 97.75 83.73
  Q 97.62 109.91 97.78 137.58
  C 97.81 142.96 97.33 148.14 91.84 149.66
  Q 89.42 150.33 86.10 150.31
  Q 62.21 150.19 40.63 150.21
  Q 34.01 150.22 31.86 145.49
  Q 30.87 143.33 30.89 138.45
  Q 30.96 111.22 30.91 83.87
  A 0.36 0.36 0.0 0 0 30.56 83.51
  Q 24.00 83.42 17.33 83.53
  C 12.32 83.61 8.26 82.62 6.53 78.05
  C 4.99 73.99 6.89 69.26 10.91 67.59
  Q 13.15 66.66 16.57 66.72
  Q 23.91 66.84 30.48 66.74
  A 0.45 0.45 0.0 0 0 30.93 66.29
  Q 30.92 37.75 30.92 9.25
  Q 30.92 1.50 38.62 0.00
  Z
  M 81.00 17.02
  A 0.32 0.32 0.0 0 0 80.68 16.70
  L 73.16 16.70
  A 0.32 0.32 0.0 0 0 72.84 17.02
  L 72.84 133.20
  A 0.32 0.32 0.0 0 0 73.16 133.52
  L 80.68 133.52
  A 0.32 0.32 0.0 0 0 81.00 133.20
  L 81.00 17.02
  Z
  M 55.88 17.09
  A 0.38 0.38 0.0 0 0 55.50 16.71
  L 47.96 16.71
  A 0.38 0.38 0.0 0 0 47.58 17.09
  L 47.58 133.13
  A 0.38 0.38 0.0 0 0 47.96 133.51
  L 55.50 133.51
  A 0.38 0.38 0.0 0 0 55.88 133.13
  L 55.88 17.09
  Z
  M 439.73 17.05
  A 0.34 0.34 0.0 0 0 439.39 16.71
  L 431.85 16.71
  A 0.34 0.34 0.0 0 0 431.51 17.05
  L 431.51 133.17
  A 0.34 0.34 0.0 0 0 431.85 133.51
  L 439.39 133.51
  A 0.34 0.34 0.0 0 0 439.73 133.17
  L 439.73 17.05
  Z
  M 464.92 17.02
  A 0.31 0.31 0.0 0 0 464.61 16.71
  L 457.07 16.71
  A 0.31 0.31 0.0 0 0 456.76 17.02
  L 456.76 133.20
  A 0.31 0.31 0.0 0 0 457.07 133.51
  L 464.61 133.51
  A 0.31 0.31 0.0 0 0 464.92 133.20
  L 464.92 17.02
  Z
  M 123.08 85.00
  C 121.22 88.38 121.76 91.34 123.53 94.52
  Q 157.76 155.94 192.04 217.09
  A 0.26 0.26 0.0 0 0 192.50 217.07
  Q 196.15 209.12 203.66 204.52
  A 0.39 0.38 -31.4 0 0 203.79 204.00
  L 137.30 85.01
  Q 136.45 83.49 134.70 83.48
  Q 130.34 83.46 125.62 83.48
  C 124.36 83.48 123.66 83.93 123.08 85.00
  Z
  M 294.22 200.29
  A 0.33 0.33 0.0 0 0 294.50 200.12
  L 359.46 83.97
  A 0.33 0.33 0.0 0 0 359.17 83.48
  L 156.10 83.48
  A 0.33 0.33 0.0 0 0 155.81 83.97
  L 220.79 200.12
  A 0.33 0.33 0.0 0 0 221.07 200.29
  L 294.22 200.29
  Z
  M 321.77 219.73
  C 344.58 179.07 367.54 137.71 390.95 96.23
  C 393.33 92.01 394.50 88.47 391.75 84.30
  A 1.83 1.82 -16.7 0 0 390.23 83.49
  L 380.77 83.48
  A 3.29 3.28 14.6 0 0 377.90 85.16
  L 310.85 205.13
  A 0.67 0.67 0.0 0 0 311.04 206.00
  Q 318.25 211.21 321.24 219.68
  Q 321.45 220.29 321.77 219.73
  Z
  M 214.41 317.47
  C 214.68 320.41 213.42 323.50 211.24 325.48
  Q 188.69 345.93 166.08 366.39
  Q 165.65 366.78 166.07 367.17
  L 201.32 399.94
  A 0.48 0.47 42.1 0 0 202.00 399.91
  Q 226.07 373.10 250.99 345.43
  C 253.76 342.35 257.58 341.33 261.56 343.13
  Q 296.55 358.97 331.34 374.72
  A 0.36 0.35 -68.1 0 0 331.82 374.51
  L 345.35 335.80
  Q 345.50 335.38 345.08 335.20
  Q 323.94 326.28 304.05 317.91
  Q 297.38 315.11 298.11 308.10
  Q 301.88 271.80 306.11 230.94
  C 306.66 225.64 304.18 220.88 299.40 218.38
  Q 296.52 216.88 288.94 216.92
  Q 250.49 217.15 221.33 216.91
  C 214.63 216.86 209.75 218.86 207.10 224.82
  Q 206.01 227.26 206.56 233.16
  Q 210.49 275.33 214.41 317.47
  Z
  M 380.57 385.15
  C 385.22 387.17 388.63 390.07 387.69 395.75
  Q 380.71 437.84 373.37 481.76
  C 371.37 493.72 387.80 496.39 389.74 484.87
  Q 398.19 434.45 406.26 385.93
  C 406.99 381.56 405.11 377.90 400.79 375.97
  Q 378.40 365.98 356.40 356.23
  A 0.45 0.45 0.0 0 0 355.78 356.50
  L 350.64 371.21
  Q 350.43 371.80 351.00 372.05
  Q 364.91 378.36 380.57 385.15
  Z
  M 175.14 398.49
  L 163.80 387.72
  A 0.54 0.54 0.0 0 0 163.03 387.74
  L 74.75 480.77
  A 8.87 8.18 -46.5 0 0 74.58 492.83
  L 74.84 493.08
  A 8.87 8.18 -46.5 0 0 86.88 492.28
  L 175.16 399.25
  A 0.54 0.54 0.0 0 0 175.14 398.49
  Z"
/>
<path fill="white" d="
  M 306.18 141.88
  A 49.93 49.93 0.0 0 1 256.25 191.81
  A 49.93 49.93 0.0 0 1 206.32 141.88
  A 49.93 49.93 0.0 0 1 256.25 91.95
  A 49.93 49.93 0.0 0 1 306.18 141.88
  Z
  M 289.51 141.88
  A 33.27 33.27 0.0 0 0 256.24 108.61
  A 33.27 33.27 0.0 0 0 222.97 141.88
  A 33.27 33.27 0.0 0 0 256.24 175.15
  A 33.27 33.27 0.0 0 0 289.51 141.88
  Z"
/>
</svg>
