<?xml version="1.0" standalone="no"?>
<!DOCTYPE svg PUBLIC "-//W3C//DTD SVG 20010904//EN"
 "http://www.w3.org/TR/2001/REC-SVG-20010904/DTD/svg10.dtd">
<svg version="1.0" xmlns="http://www.w3.org/2000/svg"
 width="512.000000pt" height="512.000000pt" viewBox="0 0 512.000000 512.000000"
 preserveAspectRatio="xMidYMid meet">

<g transform="translate(0.000000,512.000000) scale(0.100000,-0.100000)"
fill="white" stroke="none">
<path d="M2600 5024 c-105 -23 -186 -68 -271 -153 -86 -87 -131 -166 -154
-276 -40 -191 12 -364 154 -506 85 -85 166 -130 271 -153 58 -13 2 -14 -565
-15 -536 -1 -640 -3 -690 -17 -72 -18 -134 -53 -185 -104 -21 -21 -156 -236
-303 -481 -313 -522 -321 -542 -282 -694 55 -211 270 -343 475 -291 76 20 138
54 189 105 20 20 124 182 231 359 l195 322 128 0 c79 0 127 -4 127 -10 0 -6
-52 -218 -116 -473 -63 -254 -118 -491 -121 -527 -10 -122 43 -285 121 -377
l36 -41 0 -283 0 -283 -203 -205 c-221 -223 -247 -261 -268 -379 -46 -259 194
-499 453 -453 123 22 150 42 448 337 168 167 288 294 307 326 58 95 63 137 63
485 0 172 3 313 8 313 4 0 97 11 206 25 110 13 201 24 202 22 1 -1 -16 -46
-38 -100 -52 -131 -65 -199 -50 -277 33 -178 154 -299 332 -332 148 -28 318
51 397 183 17 30 109 248 202 485 188 474 195 502 167 612 -31 124 -99 212
-199 262 -118 58 -134 58 -577 2 -217 -28 -396 -49 -397 -48 -2 2 139 570 143
575 2 2 93 -31 201 -74 193 -77 200 -79 283 -79 133 0 156 13 567 321 380 286
404 309 445 415 75 199 -28 430 -229 509 -80 31 -205 32 -283 1 -35 -14 -147
-91 -308 -211 l-253 -189 -296 119 c-163 66 -319 126 -347 134 -55 14 -52 17
36 35 140 28 301 156 366 290 109 223 69 465 -107 641 -142 142 -319 195 -511
153z m282 -177 c180 -80 277 -289 222 -478 -94 -319 -503 -391 -706 -124 -82
107 -100 272 -45 398 46 103 161 200 270 228 62 16 197 4 259 -24z m1373 -946
c88 -40 145 -126 145 -221 0 -61 -23 -120 -62 -161 -48 -51 -705 -537 -743
-549 -67 -22 -136 -7 -337 74 -104 42 -202 76 -218 76 -44 0 -92 -23 -121 -58
-21 -24 -41 -91 -102 -336 -43 -168 -77 -325 -77 -348 0 -85 66 -148 154 -148
27 0 212 21 410 46 199 25 382 44 408 41 109 -10 199 -106 206 -221 4 -59 0
-72 -173 -503 -157 -394 -181 -447 -216 -482 -53 -53 -112 -75 -188 -69 -120
9 -210 99 -219 220 -4 56 0 73 68 243 79 198 82 220 34 252 -25 16 -43 15
-383 -27 -440 -54 -619 -62 -718 -31 -165 50 -283 210 -283 381 0 42 35 201
121 542 127 509 131 533 92 587 -11 14 -39 36 -63 49 -41 20 -58 22 -216 22
-154 0 -174 -2 -196 -19 -13 -11 -114 -169 -223 -352 -110 -182 -213 -345
-230 -362 -92 -93 -244 -89 -338 8 -50 51 -71 110 -65 184 4 57 14 76 263 492
143 238 273 446 290 462 16 17 48 38 70 48 37 17 83 19 733 19 l692 0 337
-135 c186 -74 351 -135 368 -135 23 0 87 43 290 196 143 108 278 205 300 215
52 24 138 24 190 0z m-2182 -2353 c56 -21 80 -23 235 -22 l172 1 0 -311 c0
-291 -2 -314 -21 -356 -15 -33 -93 -118 -287 -311 -147 -147 -282 -274 -301
-284 -45 -23 -126 -30 -179 -15 -62 16 -146 100 -162 160 -15 55 -8 136 16
181 9 19 115 133 236 255 l218 221 0 252 c0 138 2 251 5 251 3 0 34 -10 68
-22z"/>
</g>
</svg>
