<?xml version="1.0" standalone="no"?>
<!DOCTYPE svg PUBLIC "-//W3C//DTD SVG 20010904//EN"
 "http://www.w3.org/TR/2001/REC-SVG-20010904/DTD/svg10.dtd">
<svg version="1.0" xmlns="http://www.w3.org/2000/svg"
 width="512.000000pt" height="512.000000pt" viewBox="0 0 512.000000 512.000000"
 preserveAspectRatio="xMidYMid meet">

<g transform="translate(0.000000,512.000000) scale(0.100000,-0.100000)"
fill="white" stroke="none">
<path d="M1046 5100 c-27 -11 -67 -36 -89 -57 -42 -41 -87 -123 -87 -161 0
-22 -3 -23 -32 -15 -18 4 -71 8 -118 8 -78 0 -90 -3 -149 -35 -113 -61 -174
-166 -173 -299 2 -129 32 -178 241 -386 78 -77 141 -143 141 -146 0 -3 -20
-19 -44 -34 -54 -34 -111 -107 -137 -175 -39 -103 -17 -257 50 -341 l30 -36
-44 -31 c-120 -84 -174 -251 -130 -399 8 -28 35 -78 59 -110 l43 -59 -53 -57
c-58 -63 -94 -151 -94 -232 0 -76 35 -168 86 -224 69 -77 108 -96 282 -141
l42 -11 0 -273 c0 -318 5 -342 80 -416 76 -77 94 -80 458 -80 l313 0 44 -25
c24 -14 118 -50 210 -80 247 -81 261 -90 532 -358 l232 -230 -51 -56 c-60 -67
-78 -105 -78 -168 0 -77 28 -118 203 -290 138 -137 169 -163 207 -173 55 -15
122 -7 164 20 17 10 273 261 569 557 582 583 566 565 512 618 -53 54 -34 70
-620 -515 -418 -417 -546 -540 -565 -540 -35 0 -320 285 -320 320 0 20 160
185 739 764 648 648 742 738 762 733 13 -3 91 -73 172 -156 130 -130 148 -152
142 -173 -4 -13 -47 -64 -96 -114 -86 -88 -98 -109 -83 -149 9 -23 61 -47 87
-40 28 9 193 170 214 210 24 45 32 100 21 153 -9 43 -25 62 -177 216 -102 103
-181 176 -206 187 -54 25 -112 24 -168 -4 l-46 -24 -215 216 c-118 119 -220
229 -226 244 -5 16 -10 94 -10 175 -1 81 -7 181 -14 222 -8 41 -58 203 -112
360 l-98 285 -5 280 c-7 316 -9 325 -90 398 -61 55 -103 70 -201 70 -104 1
-172 -26 -251 -100 -86 -80 -128 -191 -150 -393 -9 -89 -8 -143 10 -356 18
-221 21 -326 21 -882 l0 -632 -880 0 -880 0 0 89 0 88 38 6 c94 16 202 98 249
192 50 97 40 248 -23 340 l-26 38 34 26 c96 75 146 161 155 268 6 80 -13 165
-53 225 -13 21 -24 41 -24 45 0 5 19 19 42 33 84 51 158 189 158 294 0 93 -55
213 -126 276 -62 54 -95 66 -386 141 l-38 10 0 329 0 330 104 0 c117 0 141 11
152 67 5 26 1 37 -19 57 -25 25 -32 26 -132 26 -104 0 -105 0 -105 24 0 29 33
72 70 91 42 22 1563 22 1615 1 36 -15 60 -45 70 -88 l7 -28 -626 0 -627 0 -24
-25 c-14 -13 -25 -36 -25 -50 0 -14 11 -37 25 -50 l24 -25 626 0 625 0 0 -120
c0 -115 1 -122 25 -145 31 -32 69 -32 101 0 l25 25 -3 233 c-3 229 -3 233 -30
282 -31 59 -67 94 -128 126 l-45 24 -815 2 c-785 2 -817 2 -864 -17z m-249
-381 c15 -6 38 -20 51 -31 22 -21 22 -25 22 -282 l0 -261 -146 145 c-148 148
-166 171 -178 227 -15 69 40 169 109 199 37 16 104 18 142 3z m2404 -549 c19
-6 46 -22 60 -36 24 -25 24 -27 29 -297 l5 -272 109 -325 109 -325 7 -205 c6
-188 8 -209 30 -255 17 -36 83 -110 242 -270 l217 -221 -582 -582 -582 -582
-215 216 c-232 233 -296 286 -398 336 l-67 33 285 5 c324 6 327 6 407 93 76
82 73 49 73 952 0 727 -2 824 -21 1041 -13 149 -18 267 -14 314 9 107 42 239
70 282 56 84 148 122 236 98z m-2079 -321 c89 -22 178 -50 197 -61 43 -27 88
-99 96 -153 16 -104 -60 -212 -165 -235 -52 -11 -64 -9 -215 30 -88 23 -175
48 -193 57 -96 45 -142 186 -92 282 33 66 112 120 177 121 17 0 105 -18 195
-41z m-80 -576 c116 -30 144 -41 179 -71 121 -104 98 -287 -46 -353 -58 -27
-113 -23 -264 16 -154 41 -177 51 -218 99 -104 118 -43 309 111 347 41 10 75
5 238 -38z m-100 -574 c67 -16 133 -36 147 -44 81 -42 123 -155 90 -242 -24
-64 -109 -123 -177 -123 -46 0 -244 50 -289 73 -137 71 -133 270 6 344 57 30
78 29 223 -8z m878 -938 c0 -64 31 -104 80 -104 48 0 70 31 70 99 l0 54 405 0
405 0 0 -85 c0 -94 -12 -129 -56 -164 -27 -21 -31 -21 -821 -21 -718 0 -798 2
-823 16 -47 29 -60 62 -60 163 l0 91 400 0 400 0 0 -49z"/>
<path d="M3121 614 c-12 -15 -21 -34 -21 -44 0 -34 39 -70 75 -70 36 0 75 36
75 70 0 34 -39 70 -75 70 -24 0 -39 -7 -54 -26z"/>
</g>
</svg>
